<svg width="50" height="50" viewBox="0 0 50 50" fill="none" xmlns="http://www.w3.org/2000/svg">
<path d="M22.927 43.75C22.927 42.9212 22.5978 42.1263 22.0117 41.5403C21.4257 40.9542 20.6308 40.625 19.802 40.625C18.9732 40.625 18.1783 40.9542 17.5923 41.5403C17.0062 42.1263 16.677 42.9212 16.677 43.75H6.26034C5.7078 43.75 5.1779 43.5305 4.7872 43.1398C4.3965 42.7491 4.177 42.2192 4.177 41.6667V8.33333C4.177 7.7808 4.3965 7.25089 4.7872 6.86019C5.1779 6.46949 5.7078 6.25 6.26034 6.25H16.677C16.677 7.0788 17.0062 7.87366 17.5923 8.45971C18.1783 9.04576 18.9732 9.375 19.802 9.375C20.6308 9.375 21.4257 9.04576 22.0117 8.45971C22.5978 7.87366 22.927 7.0788 22.927 6.25H43.7603C44.3129 6.25 44.8428 6.46949 45.2335 6.86019C45.6242 7.25089 45.8437 7.7808 45.8437 8.33333V19.7917C44.4623 19.7917 43.1376 20.3404 42.1608 21.3172C41.1841 22.2939 40.6353 23.6187 40.6353 25C40.6353 26.3813 41.1841 27.7061 42.1608 28.6828C43.1376 29.6596 44.4623 30.2083 45.8437 30.2083V41.6667C45.8437 42.2192 45.6242 42.7491 45.2335 43.1398C44.8428 43.5305 44.3129 43.75 43.7603 43.75H22.927ZM19.802 21.875C20.6308 21.875 21.4257 21.5458 22.0117 20.9597C22.5978 20.3737 22.927 19.5788 22.927 18.75C22.927 17.9212 22.5978 17.1263 22.0117 16.5403C21.4257 15.9542 20.6308 15.625 19.802 15.625C18.9732 15.625 18.1783 15.9542 17.5923 16.5403C17.0062 17.1263 16.677 17.9212 16.677 18.75C16.677 19.5788 17.0062 20.3737 17.5923 20.9597C18.1783 21.5458 18.9732 21.875 19.802 21.875ZM19.802 34.375C20.6308 34.375 21.4257 34.0458 22.0117 33.4597C22.5978 32.8737 22.927 32.0788 22.927 31.25C22.927 30.4212 22.5978 29.6263 22.0117 29.0403C21.4257 28.4542 20.6308 28.125 19.802 28.125C18.9732 28.125 18.1783 28.4542 17.5923 29.0403C17.0062 29.6263 16.677 30.4212 16.677 31.25C16.677 32.0788 17.0062 32.8737 17.5923 33.4597C18.1783 34.0458 18.9732 34.375 19.802 34.375Z" fill="white"/>
</svg>
