<svg width="73" height="73" viewBox="0 0 73 73" fill="none" xmlns="http://www.w3.org/2000/svg">
<path d="M63.7108 13.5542H9.4939C8.89477 13.5542 8.32017 13.7922 7.89652 14.2159C7.47287 14.6395 7.23486 15.2141 7.23486 15.8133V54.2169C7.23486 55.4151 7.71087 56.5643 8.55818 57.4116C9.40548 58.2589 10.5547 58.7349 11.7529 58.7349H61.4517C62.65 58.7349 63.7992 58.2589 64.6465 57.4116C65.4938 56.5643 65.9698 55.4151 65.9698 54.2169V15.8133C65.9698 15.2141 65.7318 14.6395 65.3082 14.2159C64.8845 13.7922 64.3099 13.5542 63.7108 13.5542ZM11.7529 31.6265H23.0481V40.6626H11.7529V31.6265ZM27.5662 31.6265H61.4517V40.6626H27.5662V31.6265ZM11.7529 45.1807H23.0481V54.2169H11.7529V45.1807ZM61.4517 54.2169H27.5662V45.1807H61.4517V54.2169Z" fill="#34495E"/>
</svg>
