<svg width="68" height="67" viewBox="0 0 68 67" fill="none" xmlns="http://www.w3.org/2000/svg">
<path d="M31.2361 58.3333C31.2361 57.2283 30.7971 56.1685 30.0157 55.3871C29.2343 54.6057 28.1745 54.1667 27.0694 54.1667C25.9643 54.1667 24.9045 54.6057 24.1231 55.3871C23.3417 56.1685 22.9027 57.2283 22.9027 58.3333H9.01386C8.27715 58.3333 7.57061 58.0407 7.04968 57.5197C6.52874 56.9988 6.23608 56.2923 6.23608 55.5556V11.1111C6.23608 10.3744 6.52874 9.66786 7.04968 9.14693C7.57061 8.62599 8.27715 8.33334 9.01386 8.33334H22.9027C22.9027 9.4384 23.3417 10.4982 24.1231 11.2796C24.9045 12.061 25.9643 12.5 27.0694 12.5C28.1745 12.5 29.2343 12.061 30.0157 11.2796C30.7971 10.4982 31.2361 9.4384 31.2361 8.33334H59.0139C59.7506 8.33334 60.4571 8.62599 60.978 9.14693C61.499 9.66786 61.7916 10.3744 61.7916 11.1111V26.3889C59.9499 26.3889 58.1835 27.1205 56.8812 28.4229C55.5788 29.7252 54.8472 31.4916 54.8472 33.3333C54.8472 35.1751 55.5788 36.9415 56.8812 38.2438C58.1835 39.5461 59.9499 40.2778 61.7916 40.2778V55.5556C61.7916 56.2923 61.499 56.9988 60.978 57.5197C60.4571 58.0407 59.7506 58.3333 59.0139 58.3333H31.2361ZM27.0694 29.1667C28.1745 29.1667 29.2343 28.7277 30.0157 27.9463C30.7971 27.1649 31.2361 26.1051 31.2361 25C31.2361 23.8949 30.7971 22.8351 30.0157 22.0537C29.2343 21.2723 28.1745 20.8333 27.0694 20.8333C25.9643 20.8333 24.9045 21.2723 24.1231 22.0537C23.3417 22.8351 22.9027 23.8949 22.9027 25C22.9027 26.1051 23.3417 27.1649 24.1231 27.9463C24.9045 28.7277 25.9643 29.1667 27.0694 29.1667ZM27.0694 45.8333C28.1745 45.8333 29.2343 45.3943 30.0157 44.6129C30.7971 43.8315 31.2361 42.7717 31.2361 41.6667C31.2361 40.5616 30.7971 39.5018 30.0157 38.7204C29.2343 37.939 28.1745 37.5 27.0694 37.5C25.9643 37.5 24.9045 37.939 24.1231 38.7204C23.3417 39.5018 22.9027 40.5616 22.9027 41.6667C22.9027 42.7717 23.3417 43.8315 24.1231 44.6129C24.9045 45.3943 25.9643 45.8333 27.0694 45.8333Z" fill="#34495E"/>
</svg>
