<svg width="72" height="72" viewBox="0 0 72 72" fill="none" xmlns="http://www.w3.org/2000/svg">
<path fill-rule="evenodd" clip-rule="evenodd" d="M41.952 7.626C42.213 8.133 42.279 8.784 42.408 10.086C42.654 12.546 42.777 13.776 43.293 14.454C43.6145 14.875 44.0417 15.2033 44.5312 15.4056C45.0207 15.608 45.5551 15.6771 46.08 15.606C46.92 15.495 47.88 14.712 49.794 13.146C50.805 12.315 51.312 11.901 51.855 11.727C52.5466 11.506 53.2948 11.5433 53.961 11.832C54.486 12.06 54.951 12.522 55.872 13.446L58.554 16.128C59.478 17.052 59.94 17.514 60.168 18.039C60.4567 18.7052 60.494 19.4534 60.273 20.145C60.099 20.688 59.685 21.195 58.857 22.206C57.288 24.123 56.505 25.08 56.391 25.923C56.3208 26.4477 56.3906 26.9816 56.5935 27.4706C56.7963 27.9595 57.125 28.3861 57.546 28.707C58.221 29.223 59.454 29.346 61.917 29.592C63.216 29.721 63.867 29.787 64.377 30.048C65.0204 30.3816 65.5212 30.9368 65.787 31.611C66 32.142 66 32.796 66 34.104V37.896C66 39.204 66 39.858 65.79 40.386C65.5233 41.0623 65.0202 41.6188 64.374 41.952C63.867 42.213 63.216 42.279 61.914 42.408C59.454 42.654 58.224 42.777 57.546 43.293C57.125 43.6145 56.7967 44.0417 56.5943 44.5312C56.392 45.0207 56.3229 45.5551 56.394 46.08C56.508 46.92 57.291 47.88 58.857 49.794C59.685 50.805 60.099 51.309 60.273 51.855C60.494 52.5466 60.4567 53.2948 60.168 53.961C59.94 54.486 59.478 54.948 58.554 55.872L55.872 58.551C54.948 59.478 54.486 59.94 53.961 60.165C53.2948 60.4537 52.5466 60.491 51.855 60.27C51.312 60.096 50.805 59.682 49.794 58.854C47.877 57.288 46.92 56.505 46.08 56.394C45.5551 56.3229 45.0207 56.392 44.5312 56.5943C44.0417 56.7967 43.6145 57.125 43.293 57.546C42.777 58.221 42.654 59.451 42.408 61.914C42.279 63.216 42.213 63.867 41.952 64.374C41.6195 65.0196 41.0642 65.5227 40.389 65.79C39.858 66 39.204 66 37.896 66H34.104C32.796 66 32.142 66 31.614 65.79C30.9377 65.5233 30.3812 65.0202 30.048 64.374C29.787 63.867 29.721 63.216 29.592 61.914C29.346 59.454 29.223 58.224 28.707 57.546C28.3858 57.1255 27.959 56.7975 27.4701 56.5951C26.9812 56.3928 26.4474 56.3234 25.923 56.394C25.08 56.505 24.123 57.288 22.206 58.854C21.195 59.685 20.688 60.099 20.145 60.273C19.4534 60.494 18.7052 60.4567 18.039 60.168C17.514 59.94 17.049 59.478 16.128 58.554L13.446 55.872C12.522 54.948 12.06 54.486 11.832 53.961C11.5433 53.2948 11.506 52.5466 11.727 51.855C11.901 51.312 12.315 50.805 13.143 49.794C14.712 47.877 15.495 46.92 15.606 46.077C15.6766 45.5526 15.6072 45.0188 15.4048 44.5299C15.2025 44.041 14.8745 43.6142 14.454 43.293C13.779 42.777 12.546 42.654 10.083 42.408C8.784 42.279 8.133 42.213 7.623 41.952C6.97964 41.6184 6.47879 41.0632 6.213 40.389C6 39.858 6 39.204 6 37.896V34.104C6 32.796 6 32.142 6.21 31.614C6.47666 30.9377 6.97984 30.3812 7.626 30.048C8.133 29.787 8.784 29.721 10.086 29.592C12.546 29.346 13.779 29.223 14.454 28.707C14.875 28.3861 15.2037 27.9595 15.4065 27.4706C15.6094 26.9816 15.6792 26.4477 15.609 25.923C15.495 25.08 14.709 24.123 13.143 22.203C12.315 21.192 11.901 20.688 11.727 20.142C11.506 19.4504 11.5433 18.7022 11.832 18.036C12.06 17.514 12.522 17.049 13.446 16.125L16.128 13.446C17.052 12.522 17.514 12.057 18.039 11.832C18.7052 11.5433 19.4534 11.506 20.145 11.727C20.688 11.901 21.195 12.315 22.206 13.143C24.123 14.709 25.08 15.492 25.92 15.606C26.4456 15.6773 26.9808 15.608 27.4709 15.4051C27.961 15.2022 28.3886 14.873 28.71 14.451C29.22 13.776 29.346 12.546 29.592 10.083C29.721 8.784 29.787 8.133 30.048 7.623C30.381 6.97851 30.9363 6.47653 31.611 6.21C32.142 6 32.796 6 34.104 6H37.896C39.204 6 39.858 6 40.386 6.21C41.0623 6.47666 41.6188 6.97984 41.952 7.626ZM36 48C39.1826 48 42.2348 46.7357 44.4853 44.4853C46.7357 42.2348 48 39.1826 48 36C48 32.8174 46.7357 29.7652 44.4853 27.5147C42.2348 25.2643 39.1826 24 36 24C32.8174 24 29.7652 25.2643 27.5147 27.5147C25.2643 29.7652 24 32.8174 24 36C24 39.1826 25.2643 42.2348 27.5147 44.4853C29.7652 46.7357 32.8174 48 36 48Z" fill="#34495E"/>
</svg>
