<?xml version="1.0" encoding="UTF-8"?>
<svg version="1.1" xmlns="http://www.w3.org/2000/svg" width="902" height="900">
<path d="M0 0 C2.23429418 -0.00258613 4.4685879 -0.00559997 6.70288098 -0.0090034 C12.82854213 -0.0170476 18.95419154 -0.01886153 25.07985735 -0.01960087 C31.01265156 -0.02126527 36.94544041 -0.02758643 42.87823132 -0.03367928 C58.76387009 -0.0497049 74.64950786 -0.05563871 90.53515326 -0.06042803 C98.05695643 -0.06276749 105.57875885 -0.06637053 113.10056144 -0.07012341 C138.8719558 -0.08295605 164.64334975 -0.09367533 190.41474724 -0.09712601 C192.03115509 -0.09734764 193.64756295 -0.09756942 195.2639708 -0.09779136 C196.88417586 -0.098012 198.50438092 -0.09823248 200.12458599 -0.09845281 C203.37473416 -0.09889535 206.62488234 -0.09934247 209.87503052 -0.09979248 C210.68087241 -0.09990187 211.4867143 -0.10001126 212.31697565 -0.10012397 C238.43317206 -0.10375278 264.54934069 -0.11966766 290.66552647 -0.14298284 C318.30727008 -0.16761464 345.94899782 -0.1813004 373.59075272 -0.18249393 C376.62890315 -0.18266537 379.66705358 -0.18288079 382.70520401 -0.18312836 C383.45322733 -0.18318413 384.20125066 -0.18323989 384.97194135 -0.18329735 C396.9759971 -0.18444489 408.98002417 -0.19544146 420.98407025 -0.21001541 C433.06453857 -0.22442781 445.14497039 -0.22759074 457.22544496 -0.21957543 C463.76166193 -0.21552952 470.29780222 -0.2165437 476.83400917 -0.23063278 C482.83009517 -0.24343885 488.82601395 -0.24211568 494.82209994 -0.23004207 C496.97892888 -0.22809664 499.13576994 -0.23110941 501.2925819 -0.23988643 C544.32520396 -0.40376742 582.68233207 12.16695162 613.75881958 42.67218018 C639.58362116 68.90703773 654.4127366 104.85750623 654.33555984 141.70067978 C654.3386388 143.08706488 654.3386388 143.08706488 654.34177995 144.50145775 C654.34742425 147.59156158 654.34599588 150.68162047 654.34457397 153.77172852 C654.3471591 156.01254618 654.35017267 158.25336339 654.35357738 160.49417996 C654.36163357 166.64716295 654.36343618 172.80013426 654.36417484 178.9531219 C654.36583747 184.90948567 654.37215728 190.86584408 654.37825326 196.82220456 C654.39429154 212.77580908 654.40021442 228.72941261 654.405002 244.68302374 C654.4073405 252.23624608 654.41094346 259.78946767 654.41469738 267.34268942 C654.42753202 293.21815776 654.43825044 319.09362568 654.44169998 344.96909714 C654.44192161 346.59258122 654.4421434 348.2160653 654.44236533 349.83954938 C654.44258597 351.46687171 654.44280645 353.09419404 654.44302678 354.72151637 C654.44346932 357.98599545 654.44391644 361.25047453 654.44436646 364.51495361 C654.44447585 365.32435096 654.44458524 366.13374832 654.44469794 366.96767286 C654.44832609 393.19423894 654.46423741 419.42077734 654.48755682 445.64733283 C654.51218855 473.40077539 654.5258744 501.15420215 654.5270679 528.90765595 C654.52723934 531.9581949 654.52745477 535.00873383 654.52770233 538.05927277 C654.5277581 538.81035539 654.52781387 539.56143802 654.52787133 540.33528072 C654.52901897 552.38965732 654.54001664 564.44400537 654.55458939 576.49837234 C654.56900187 588.63061426 654.5721647 600.76281983 654.56414941 612.89506796 C654.56010331 619.45962463 654.56111843 626.02410495 654.57520676 632.58865166 C654.58801207 638.61072314 654.58669028 644.63262812 654.57461604 650.65469959 C654.57267046 652.82100951 654.57568409 654.98733149 654.58446041 657.1536245 C654.72892703 695.25799423 645.62048839 730.8292412 620.20413208 760.14044189 C619.49643677 760.96930908 618.78874146 761.79817627 618.05960083 762.65216064 C611.97393726 769.6117724 605.55680462 776.3140653 597.80960083 781.43341064 C590.71142649 786.1264425 585.73780237 790.49674701 581.02346802 797.60919189 C572.14954552 810.90217023 560.14719202 821.88769599 546.86428833 830.69122314 C541.92272358 834.00843195 539.10229852 837.93701504 535.83743286 842.9006958 C516.28054925 872.21531296 482.92857199 890.8976987 449.01663208 898.01544189 C440.20636047 899.66671463 431.43445997 900.2905929 422.484025 900.27186966 C421.08994523 900.27494861 421.08994523 900.27494861 419.66770223 900.27808976 C416.56618957 900.28372577 413.4647218 900.28230674 410.36320496 900.28088379 C408.11184925 900.28346938 405.860494 900.28648308 403.60913938 900.28988719 C397.43175138 900.29793769 391.25437501 900.29974567 385.07698238 900.30048466 C379.09572354 900.30214811 373.11447002 900.3084685 367.13321445 900.31456307 C351.11611743 900.33059472 335.0990214 900.33652315 319.0819178 900.34131182 C311.49922227 900.34365063 303.91652749 900.34725359 296.33383255 900.3510072 C270.35836201 900.36384025 244.38289189 900.37455959 218.40741825 900.3780098 C216.77797132 900.37823143 215.14852438 900.37845321 213.51907745 900.37867515 C211.88578268 900.37889579 210.25248791 900.37911627 208.61919314 900.3793366 C205.34273724 900.37977914 202.06628134 900.38022626 198.78982544 900.38067627 C197.57127694 900.38084036 197.57127694 900.38084036 196.32811129 900.38100776 C169.99724514 900.38463701 143.66640654 900.40055335 117.33555093 900.42386663 C89.47241131 900.44849133 61.60928742 900.46218386 33.74613661 900.46337771 C30.68441514 900.46354916 27.62269368 900.46376458 24.56097221 900.46401215 C23.80713494 900.46406791 23.05329767 900.46412368 22.27661684 900.46418114 C10.17261913 900.46532928 -1.93135019 900.47633104 -14.03533833 900.4908992 C-26.21335206 900.50530243 -38.3913296 900.50847965 -50.56934952 900.50045922 C-57.15999205 900.49640985 -63.75055972 900.49744359 -70.34119606 900.51151657 C-76.38471111 900.52430284 -82.42806011 900.52301655 -88.47157509 900.51092586 C-90.64791367 900.50897704 -92.82426421 900.5120092 -95.00058603 900.52077022 C-137.26390979 900.68001701 -174.86911104 887.40960107 -205.54586792 857.76544189 C-235.96507551 826.27576365 -246.32217134 786.84507911 -246.17681885 744.02140808 C-246.18028423 741.76539448 -246.18505466 739.50938258 -246.19100058 737.25337416 C-246.20341914 731.11412647 -246.19738223 724.97502031 -246.18804193 718.8357724 C-246.18191725 712.87584093 -246.18996828 706.91593212 -246.19748402 700.95600592 C-246.21321157 688.02863492 -246.21194007 675.10130864 -246.20324728 662.17393348 C-246.19567819 650.86108905 -246.19374093 639.54826095 -246.19731522 628.23541451 C-246.19754437 627.48281519 -246.19777353 626.73021588 -246.19800963 625.95481052 C-246.19894375 622.8991997 -246.19989897 619.8435889 -246.20088892 616.7879781 C-246.21005012 588.16901464 -246.20177048 559.55007954 -246.18559823 530.93112047 C-246.17136171 505.54474303 -246.17263835 480.15841074 -246.1869812 454.77203369 C-246.20306945 426.20139151 -246.20940167 397.63077435 -246.20014441 369.06012827 C-246.19918236 366.01063669 -246.19824384 362.96114511 -246.19731522 359.91165352 C-246.19707798 359.16087832 -246.19684075 358.41010313 -246.19659633 357.63657717 C-246.1931941 346.33442669 -246.19715565 335.03229437 -246.20475388 323.73014641 C-246.21335631 310.87074045 -246.21113475 298.0113859 -246.19491164 285.15198629 C-246.18691397 278.59760146 -246.18389225 272.04328906 -246.1938591 265.48890305 C-246.20286117 259.4778403 -246.19778306 253.46695281 -246.18192644 247.45590574 C-246.17860187 245.29266742 -246.18021966 243.129414 -246.18755381 240.96618556 C-246.24033711 224.09037155 -245.29002701 207.14630572 -240.10836792 190.95294189 C-239.85273071 190.13527344 -239.59709351 189.31760498 -239.33370972 188.47515869 C-232.67599118 167.9741482 -221.26775972 150.00511727 -206.79586792 134.14044189 C-206.09332886 133.35540283 -205.39078979 132.57036377 -204.66696167 131.76153564 C-199.47063757 126.24968522 -193.58819794 121.81145852 -187.4670105 117.38824463 C-181.78356919 113.26360283 -177.21170912 108.97890236 -173.23336792 103.14044189 C-165.41498234 92.20945376 -155.70317104 81.33348874 -144.44430542 73.89044189 C-136.88644016 68.86889648 -132.016248 64.30981144 -127.06539917 56.51153564 C-109.29154923 29.04866289 -75.8643537 10.65349862 -44.79586792 3.14044189 C-40.80896124 2.31641539 -36.8363726 1.63750763 -32.79586792 1.14044189 C-32.15131995 1.05716935 -31.50677198 0.97389681 -30.84269226 0.88810086 C-20.59706462 -0.24401787 -10.29261068 -0.0047677 0 0 Z M-54.35836792 21.26544189 C-55.22840454 21.564021 -56.09844116 21.8626001 -56.99484253 22.17022705 C-74.66036208 28.47185842 -89.08316118 38.43194853 -102.79586792 51.14044189 C-99.35358943 52.86158114 -95.36871271 50.81682236 -91.79196167 49.78692627 C-76.86513863 45.75697502 -61.60933944 45.85036042 -46.27810669 45.87974548 C-44.02640938 45.87672016 -41.77471309 45.87282877 -39.5230186 45.86815292 C-33.37250329 45.85791335 -27.22204655 45.86004441 -21.07152653 45.86433351 C-15.10773476 45.8665535 -9.14395594 45.85937851 -3.18016926 45.85257326 C10.51327836 45.83737582 24.20670742 45.8356238 37.90016171 45.83809628 C48.47836783 45.83993273 59.0565679 45.83816197 69.63477325 45.83387184 C71.15740451 45.83326943 72.68003576 45.83266823 74.20266701 45.83206824 C76.49745165 45.83116093 78.79223629 45.83025226 81.08702093 45.82933589 C102.40823777 45.82091274 123.72945235 45.81656625 145.05067062 45.82074261 C146.25499224 45.82097717 146.25499224 45.82097717 147.48364359 45.82121647 C151.55246702 45.82202219 155.62129045 45.82286796 159.69011387 45.82372978 C160.90211938 45.82398641 160.90211938 45.82398641 162.13860985 45.82424822 C163.77258737 45.82459488 165.40656488 45.82494341 167.0405424 45.82529381 C192.45966935 45.83064983 217.8787616 45.82272137 243.29788208 45.80426025 C271.89229058 45.78351707 300.48667759 45.77282195 329.08109403 45.77683574 C332.13347196 45.77723105 335.1858499 45.7775926 338.23822784 45.77793312 C339.36548939 45.77806922 339.36548939 45.77806922 340.51552389 45.77820807 C351.83089209 45.77937114 363.1462385 45.77274787 374.46160126 45.7621212 C387.33942376 45.7500391 400.21719844 45.7485448 413.09502169 45.76091137 C419.65950058 45.76693412 426.22390515 45.76793283 432.78837967 45.75590897 C438.80888994 45.74501002 444.82922941 45.7482011 450.84973183 45.76217065 C453.01648599 45.76480655 455.18325371 45.76248626 457.34999451 45.75443479 C495.22654321 45.62356495 530.05469571 55.06368973 559.20413208 80.14044189 C560.15932739 80.94997314 561.11452271 81.75950439 562.09866333 82.59356689 C589.14720185 106.07492931 604.92476175 141.15780438 607.99900961 176.52986073 C608.47875609 184.97439435 608.34849801 193.44300436 608.34457397 201.89834595 C608.34716011 204.12851533 608.35017396 206.35868424 608.35357738 208.58885252 C608.36162145 214.70311211 608.3634355 220.81735993 608.36417484 226.93162417 C608.36583926 232.85340633 608.37216043 238.77518311 608.37825326 244.69696196 C608.39427876 260.55308246 608.40021267 276.40920196 608.405002 292.2653291 C608.40734148 299.77318005 608.41094452 307.28103025 608.41469738 314.78888061 C608.42753002 340.51255471 608.43824929 366.23622839 608.44169998 391.95990562 C608.44192161 393.57331589 608.44214339 395.18672616 608.44236533 396.80013642 C608.44258597 398.41733649 608.44280645 400.03453655 608.44302678 401.65173662 C608.44346932 404.89585582 608.44391644 408.13997503 608.44436646 411.38409424 C608.44447585 412.18844129 608.44458524 412.99278834 608.44469794 413.82150954 C608.44832675 439.88920417 608.4642416 465.95687096 608.48755682 492.02455494 C608.51218875 519.61506998 608.52587438 547.20556913 608.5270679 574.79609549 C608.52723934 577.82862894 608.52745476 580.86116239 608.52770233 583.89369583 C608.5277581 584.640336 608.52781387 585.38697618 608.52787133 586.15624181 C608.52901885 598.13798158 608.54001533 610.11969263 608.55458939 622.10142272 C608.56900195 634.15948691 608.57216462 646.21751454 608.56414941 658.27558498 C608.56010355 664.79965041 608.56111738 671.32363901 608.57520676 677.8476944 C608.58801318 683.83267796 608.58668934 689.81749399 608.57461604 695.80247755 C608.57267067 697.95526884 608.57568309 700.10807227 608.58446041 702.26084654 C608.64850124 719.04500153 607.96370653 736.10408401 602.65725708 752.17950439 C601.97939745 754.3357351 601.97939745 754.3357351 603.20413208 757.14044189 C617.10058498 742.92486377 627.00544765 726.04572028 633.51663208 707.26544189 C633.74697144 706.61994385 633.97731079 705.9744458 634.21463013 705.30938721 C639.32834278 689.6586116 639.63979438 673.54858604 639.58508301 657.2615509 C639.58854636 654.99503938 639.59331544 652.72852956 639.59926474 650.4620232 C639.61171139 644.27986261 639.60563332 638.09784213 639.59630609 631.91568124 C639.59019138 625.91857154 639.59822656 619.92149026 639.60574818 613.9243862 C639.62149219 600.91242968 639.62019748 587.90051753 639.61151144 574.88855685 C639.60394735 563.50055373 639.60200277 552.11256681 639.60557938 540.72456169 C639.60580853 539.96745199 639.60603769 539.21034229 639.60627379 538.43028988 C639.60720789 535.35647303 639.6081631 532.28265619 639.60915308 529.20883936 C639.61831838 500.4072859 639.61002845 471.6057606 639.59386239 442.80421149 C639.57962832 417.25050172 639.5808996 391.69683682 639.59524536 366.14312744 C639.61133142 337.39379452 639.61766679 308.64448645 639.60840857 279.89514965 C639.60744651 276.82681239 639.60650798 273.75847513 639.60557938 270.69013786 C639.60534214 269.93470629 639.60510491 269.17927472 639.60486049 268.40095129 C639.60145707 257.02452731 639.6054221 245.64812138 639.61301804 234.27169991 C639.62161813 221.32728585 639.61940401 208.38292287 639.6031758 195.43851513 C639.59517448 188.83972097 639.59216242 182.24099757 639.60212326 175.64219856 C639.61111815 169.59159312 639.60605878 163.54116192 639.5901906 157.49057209 C639.586863 155.31178419 639.58849082 153.13298131 639.59581797 150.9542032 C639.71715466 111.847929 628.04231121 78.10003477 600.10256958 49.96856689 C586.35209607 36.56807477 569.41854543 27.09960114 551.32913208 20.82794189 C550.68363403 20.59760254 550.03813599 20.36726318 549.37307739 20.12994385 C533.70751907 15.01140111 517.58277036 14.70484928 501.2805481 14.75949097 C499.00919909 14.75602765 496.73785177 14.75125858 494.46650791 14.74530923 C488.27101523 14.73286229 482.07566237 14.73894079 475.88016939 14.74826789 C469.87022581 14.75438246 463.86031059 14.74634752 457.85037264 14.73882579 C444.81080741 14.72308183 431.77128646 14.72437642 418.73171708 14.73306253 C407.32018378 14.7406263 395.90866665 14.74257135 384.49713135 14.7389946 C383.73849018 14.73876544 382.97984901 14.73853629 382.19821871 14.73830019 C379.11820368 14.73736609 376.03818865 14.73641088 372.95817364 14.7354209 C344.09903757 14.7262557 315.2399296 14.73454553 286.38079788 14.75071159 C260.77339162 14.76494709 235.16603013 14.76367315 209.55862427 14.74932861 C180.7503373 14.73324475 151.94207513 14.72690584 123.13378429 14.7361654 C120.05956714 14.73712747 116.98534998 14.738066 113.91113281 14.7389946 C113.15425067 14.73923183 112.39736853 14.73946906 111.61755056 14.73971348 C100.21664553 14.74311766 88.81575849 14.73915048 77.41485596 14.73155594 C64.44406293 14.72295842 51.47332087 14.72516461 38.50253415 14.74139817 C31.88968706 14.74940274 25.27691061 14.75240614 18.66405869 14.74245071 C12.6017863 14.73346246 6.53968794 14.73850445 0.47743118 14.75438337 C-1.70672247 14.75771374 -3.89089105 14.75607681 -6.07503498 14.74875601 C-22.61704401 14.69759639 -38.60573834 15.7605168 -54.35836792 21.26544189 Z M-124.45993042 79.08184814 C-125.74039913 81.05496805 -126.79250021 83.01516515 -127.79586792 85.14044189 C-128.69305542 86.81106689 -128.69305542 86.81106689 -129.60836792 88.51544189 C-130.93325721 90.96395993 -130.93325721 90.96395993 -130.79586792 93.14044189 C-129.45635881 92.92829902 -129.45635881 92.92829902 -128.08978891 92.71187043 C-116.10336948 90.99670955 -104.30569595 90.85939725 -92.21322632 90.88647461 C-89.9545537 90.88416657 -87.69588183 90.88098775 -85.43721151 90.87702012 C-79.26756942 90.86871071 -73.0979896 90.87277982 -66.92834735 90.87899256 C-60.946258 90.88306485 -54.9641788 90.87771474 -48.9820918 90.87269783 C-36.00087733 90.86219532 -23.01968261 90.86306755 -10.03846629 90.86885565 C1.3219277 90.87389591 12.68231447 90.87519591 24.04270935 90.87281036 C24.79761921 90.87265759 25.55252907 90.87250482 26.33031498 90.87234742 C29.39509428 90.8717247 32.45987357 90.87108789 35.52465286 90.8704279 C64.24765002 90.86431622 92.97063462 90.86984679 121.69362984 90.88062169 C147.18655788 90.89011219 172.67946593 90.88926291 198.1723938 90.87969971 C226.844404 90.86897976 255.51640312 90.86474973 284.18841505 90.87092423 C287.24746163 90.87156562 290.30650822 90.87219131 293.36555481 90.87281036 C294.11871535 90.87296852 294.87187589 90.87312667 295.64785947 90.87328962 C306.99835122 90.87556016 318.34883493 90.87291225 329.69932556 90.86785126 C342.61129123 90.86212257 355.52323415 90.86358405 368.435197 90.87441275 C375.01941724 90.87975318 381.60360537 90.88174465 388.18782616 90.87511444 C394.22166558 90.86913047 400.25542719 90.87247039 406.28925961 90.88306955 C408.4653631 90.88529321 410.64147324 90.88419067 412.81757241 90.87931797 C428.4100628 90.84709708 443.59279229 91.27318998 458.64163208 95.82794189 C459.52214233 96.08849365 460.40265259 96.34904541 461.30984497 96.61749268 C500.21548857 108.45727274 529.29128239 133.28258201 548.44314575 168.99688721 C561.15449632 193.59078741 563.35942869 219.70725867 563.33784485 246.91853333 C563.33971439 249.15084065 563.34201566 251.38314765 563.34471017 253.61545414 C563.35081696 259.73550697 563.35069589 265.85554613 563.3495158 271.97560132 C563.3493325 277.90284808 563.35382648 283.83009087 563.35812868 289.75733567 C563.36778656 303.37428055 563.37061235 316.99122166 563.37118574 330.60816956 C563.37164579 341.12739565 563.37370676 351.64662026 563.37688637 362.16584587 C563.37778395 365.19696758 563.37867377 368.22808929 563.37956125 371.259211 C563.37978229 372.01282316 563.38000334 372.76643532 563.38023109 373.54288421 C563.38638319 394.73370338 563.39033187 415.92452204 563.38988781 437.11534214 C563.38987223 437.91387229 563.38985665 438.71240245 563.3898406 439.53513048 C563.3897575 443.58213777 563.38965846 447.62914506 563.38955589 451.67615236 C563.38952598 452.88171137 563.38952598 452.88171137 563.38949545 454.11162511 C563.38945502 455.73691447 563.38941322 457.36220382 563.38937006 458.98749318 C563.38875754 484.2648002 563.39626051 509.5420938 563.40994263 534.81939697 C563.42531942 563.23905311 563.43390788 591.65870042 563.4329794 620.07836097 C563.43290478 623.11168317 563.43285607 626.14500536 563.43282509 629.17832756 C563.43280761 630.29859122 563.43280761 630.29859122 563.43278977 631.44148648 C563.43275906 643.43496898 563.43913179 655.42843979 563.44775735 667.42191882 C563.45625438 679.48664748 563.45720779 691.55135911 563.45064803 703.61608911 C563.44728869 710.14584197 563.44730845 716.67556115 563.45600128 723.20531082 C563.46388888 729.19195772 563.46241179 735.17852913 563.45371715 741.16517424 C563.45218713 743.32194853 563.45397938 745.47872852 563.45957723 747.63549609 C563.49021401 760.28506252 562.91621255 772.60106848 561.20413208 785.14044189 C569.59903126 782.36327954 576.00393435 780.08820082 580.45193481 771.91485596 C583.59798946 765.55990221 586.1726509 758.95364104 588.51663208 752.26544189 C588.747052 751.62058838 588.97747192 750.97573486 589.21487427 750.31134033 C594.32322038 734.65624733 594.63980542 718.55187355 594.58508301 702.2615509 C594.58854636 699.99503938 594.59331544 697.72852956 594.59926474 695.4620232 C594.61171139 689.27986261 594.60563332 683.09784213 594.59630609 676.91568124 C594.59019138 670.91857154 594.59822656 664.92149026 594.60574818 658.9243862 C594.62149219 645.91242968 594.62019748 632.90051753 594.61151144 619.88855685 C594.60394735 608.50055373 594.60200277 597.11256681 594.60557938 585.72456169 C594.60580853 584.96745199 594.60603769 584.21034229 594.60627379 583.43028988 C594.60720789 580.35647303 594.6081631 577.28265619 594.60915308 574.20883936 C594.61831838 545.4072859 594.61002845 516.6057606 594.59386239 487.80421149 C594.57962832 462.25050172 594.5808996 436.69683682 594.59524536 411.14312744 C594.61133142 382.39379452 594.61766679 353.64448645 594.60840857 324.89514965 C594.60744651 321.82681239 594.60650798 318.75847513 594.60557938 315.69013786 C594.60534214 314.93470629 594.60510491 314.17927472 594.60486049 313.40095129 C594.60145707 302.02452731 594.6054221 290.64812138 594.61301804 279.27169991 C594.62161813 266.32728585 594.61940401 253.38292287 594.6031758 240.43851513 C594.59517448 233.83972097 594.59216242 227.24099757 594.60212326 220.64219856 C594.61111815 214.59159312 594.60605878 208.54116192 594.5901906 202.49057209 C594.586863 200.31178419 594.58849082 198.13298131 594.59581797 195.9542032 C594.71719357 156.83538983 583.06363198 123.49022091 555.39553833 95.22637939 C538.02305393 78.50445959 515.88972533 66.82417089 492.20413208 62.14044189 C491.40149223 61.97487364 490.59885238 61.80930539 489.7718901 61.63871992 C478.85089436 59.65637049 467.97205453 59.85565419 456.90873718 59.87301636 C454.64455497 59.86927596 452.38037404 59.86467289 450.11619514 59.85928571 C443.91715971 59.84708831 437.71817837 59.84731234 431.51913369 59.84967446 C425.51261651 59.85004141 419.5061175 59.841049 413.49960824 59.83244869 C399.70241862 59.81314436 385.90524391 59.80748177 372.10804237 59.80633457 C361.4477829 59.80541401 350.78752923 59.80128968 340.12727165 59.79493332 C337.054049 59.79313811 333.98082634 59.79135848 330.90760368 59.78958356 C330.14349295 59.78914147 329.37938222 59.78869937 328.59211662 59.78824388 C307.10908041 59.77594148 285.62604621 59.76804212 264.14300632 59.76893044 C263.3336462 59.76896159 262.52428607 59.76899275 261.69039987 59.76902485 C257.58863369 59.76919106 253.48686751 59.76938914 249.38510133 59.76959427 C248.57054127 59.76963416 247.75598121 59.76967405 246.91673752 59.76971515 C245.26949851 59.76979602 243.62225951 59.76987962 241.97502051 59.76996593 C216.36167104 59.77119072 190.74837458 59.75618901 165.13504028 59.7288208 C136.32785105 59.69805226 107.52069664 59.68089122 78.71348995 59.68274724 C75.6374381 59.68289649 72.56138625 59.68299391 69.4853344 59.68305588 C68.72798944 59.68307919 67.97064449 59.6831025 67.19034969 59.68312651 C55.0396805 59.68318788 42.88905759 59.67045429 30.73840213 59.65319135 C18.51028269 59.63617861 6.28223042 59.63430491 -5.94589435 59.64740999 C-12.56125124 59.65411882 -19.17647738 59.65412356 -25.79182816 59.63670349 C-31.86133242 59.62088597 -37.93053944 59.62392462 -44.00003684 59.64127176 C-46.18239537 59.64432264 -48.36477658 59.64078248 -50.54710834 59.6295516 C-72.06235537 59.52626312 -109.04845932 61.10179853 -124.45993042 79.08184814 Z M-125.48262405 106.41383076 C-126.26724472 106.52171203 -127.05186539 106.6295933 -127.86026244 106.74074371 C-131.05649591 107.27319971 -133.50553276 107.94549591 -136.20755875 109.75977534 C-138.36587056 112.99480089 -138.96957016 116.18111832 -139.52205849 119.9577179 C-139.64394536 120.74729671 -139.76583224 121.53687552 -139.89141265 122.35038096 C-141.31879956 132.55406011 -141.21128004 142.7826071 -141.17681885 153.06402588 C-141.18028217 155.33537489 -141.18505123 157.60672221 -141.19100058 159.87806606 C-141.20344753 166.07355874 -141.19736903 172.2689116 -141.18804193 178.46440458 C-141.18192735 184.47434817 -141.1899623 190.48426339 -141.19748402 196.49420133 C-141.21322798 209.53376656 -141.2119334 222.57328752 -141.20324728 235.61285689 C-141.19568352 247.0243902 -141.19373846 258.43590733 -141.19731522 269.84744263 C-141.19754437 270.6060838 -141.19777353 271.36472497 -141.19800963 272.14635526 C-141.19894373 275.2263703 -141.19989894 278.30638532 -141.20088892 281.38640034 C-141.21005411 310.2455364 -141.20176429 339.10464437 -141.18559823 367.9637761 C-141.17136272 393.57118235 -141.17263666 419.17854384 -141.1869812 444.78594971 C-141.20306506 473.59423668 -141.20940397 502.40249884 -141.20014441 531.21078968 C-141.19918234 534.28500684 -141.19824381 537.359224 -141.19731522 540.43344116 C-141.19707798 541.19032331 -141.19684075 541.94720545 -141.19659633 542.72702342 C-141.19319215 554.12792845 -141.19715934 565.52881548 -141.20475388 576.92971802 C-141.2133514 589.90051104 -141.2111452 602.8712531 -141.19491164 615.84203982 C-141.18690707 622.45488692 -141.18390368 629.06766336 -141.1938591 635.68051529 C-141.20284735 641.74278767 -141.19780537 647.80488603 -141.18192644 653.8671428 C-141.17859608 656.05129645 -141.18023301 658.23546503 -141.18755381 660.41960895 C-141.23890318 677.02297573 -140.15466763 693.02476455 -134.60836792 708.82794189 C-134.15554443 710.14290649 -134.15554443 710.14290649 -133.693573 711.48443604 C-122.35448042 743.29261087 -98.07843819 768.49695392 -68.03292847 783.32110596 C-46.63775583 793.44289428 -25.19835688 795.60011429 -1.78999329 795.52139282 C0.47809398 795.52485681 2.74617955 795.52962632 5.01426166 795.53557456 C11.19609357 795.54801219 17.37778522 795.54194733 23.5596174 795.5326159 C29.5577762 795.52649804 35.55590665 795.53453821 41.5540598 795.542058 C54.5666567 795.55779643 67.5792092 795.55650965 80.59181024 795.54782126 C91.97915425 795.54025593 103.36648204 795.53831316 114.75382805 795.54188919 C115.51101413 795.54211835 116.26820022 795.5423475 117.04833133 795.5425836 C120.1224681 795.54351771 123.19660486 795.54447292 126.27074161 795.54546289 C155.07059611 795.55462668 183.87042244 795.54634033 212.67027258 795.5301722 C238.22413601 795.51593541 263.77795459 795.51721201 289.33181763 795.53155518 C318.08261313 795.54763905 346.83338378 795.55397807 375.58418316 795.54471838 C378.65220606 795.54375632 381.72022897 795.54281779 384.78825188 795.54188919 C385.92128062 795.54153334 385.92128062 795.54153334 387.07719882 795.54117031 C398.45452919 795.53776627 409.83184152 795.541733 421.20916939 795.54932785 C434.15248986 795.55792531 447.09575926 795.55571923 460.03907342 795.53948562 C466.63775064 795.5314812 473.23635707 795.52847742 479.83503914 795.53843307 C485.8843188 795.54742154 491.93342406 795.542379 497.98268806 795.52650042 C500.16210122 795.52317016 502.34152934 795.52480674 504.52093274 795.53212778 C518.1430399 795.57435 532.13449659 795.49698706 545.20413208 791.14044189 C546.21200874 788.15989053 546.21200874 788.15989053 546.82913208 784.57794189 C547.18878052 782.7816333 547.18878052 782.7816333 547.55569458 780.94903564 C548.77721188 773.77446114 549.35031709 766.93481346 549.33276653 759.6708746 C549.33451957 758.74428576 549.33627261 757.81769692 549.33807877 756.86302963 C549.34272963 753.75902844 549.3402756 750.65507429 549.33784485 747.55107117 C549.33971329 745.30271573 549.34201412 743.05436061 549.34471017 740.80600601 C549.35083065 734.62777703 549.35069428 728.44956157 549.3495158 722.27133024 C549.3493328 716.29225155 549.35382309 710.31317683 549.35812868 704.33410009 C549.36779667 690.59401501 549.37061274 676.85393366 549.37118574 663.11384558 C549.37164545 652.50060509 549.37370467 641.88736607 549.37688637 631.27412605 C549.37778393 628.21801585 549.37867374 625.16190565 549.37956125 622.10579544 C549.37978229 621.34600921 549.38000334 620.58622298 549.38023109 619.80341292 C549.38638498 598.43290661 549.39033169 577.06240081 549.38988781 555.69189358 C549.38987223 554.88625828 549.38985665 554.08062298 549.3898406 553.2505745 C549.3897575 549.16738464 549.38965845 545.08419478 549.38955589 541.00100493 C549.38953595 540.19008655 549.389516 539.37916817 549.38949545 538.54367651 C549.38945502 536.90380099 549.38941322 535.26392547 549.38937006 533.62404995 C549.38875752 508.11901018 549.39626017 482.61398372 549.40994263 457.10894775 C549.4253132 428.44543044 549.43390824 399.78192186 549.4329794 371.11840016 C549.43290478 368.06008947 549.43285607 365.00177878 549.43282509 361.94346809 C549.43281343 361.19045128 549.43280178 360.43743447 549.43278977 359.66159896 C549.43275904 347.55856867 549.43913721 335.45554996 549.44775735 323.3525231 C549.45624672 311.18106054 549.45721377 299.00961486 549.45064803 286.83815097 C549.44728447 280.24803278 549.44732293 273.65794799 549.45600128 267.06783295 C549.4638712 261.02941168 549.46242973 254.99106535 549.45371715 248.95264591 C549.45218324 246.7736282 549.45399417 244.59460489 549.45957723 242.4155938 C549.54336294 207.38126149 541.69494558 177.42553539 519.20413208 150.14044189 C518.48483521 149.26645752 517.76553833 148.39247314 517.02444458 147.49200439 C507.67136185 136.63146511 496.7145281 128.09542233 484.20413208 121.14044189 C483.60794067 120.80415771 483.01174927 120.46787354 482.39749146 120.12139893 C474.59077782 115.77048444 466.68904685 112.39074857 458.14163208 109.76544189 C456.99295654 109.40748535 456.99295654 109.40748535 455.82107544 109.04229736 C441.01294749 104.76813667 425.99295261 104.8506414 410.72396851 104.87974548 C408.46417196 104.87672077 406.20437643 104.87282968 403.9445827 104.86815292 C397.76707438 104.85790547 391.58962431 104.86004644 385.41211128 104.86433351 C379.42370085 104.86655226 373.43530332 104.85938035 367.44689796 104.85257326 C353.69552265 104.83737036 339.94416582 104.83562437 326.19278386 104.83809628 C315.57020885 104.83993227 304.94763987 104.83816294 294.32506561 104.83387184 C292.79639907 104.83326943 291.26773253 104.83266823 289.73906599 104.83206824 C287.43522346 104.83116094 285.13138094 104.83025227 282.82753841 104.82933589 C261.42022863 104.8209119 240.0129211 104.81656683 218.60560989 104.82074261 C217.79937186 104.82089898 216.99313383 104.82105536 216.16246434 104.82121647 C212.07656902 104.8220222 207.9906737 104.82286797 203.90477839 104.82372978 C203.0933753 104.82390086 202.28197221 104.82407195 201.44598115 104.82424822 C199.80512885 104.82459488 198.16427656 104.82494341 196.52342426 104.82529381 C170.99705799 104.83064989 145.47072628 104.82272154 119.94436646 104.80426025 C91.23351243 104.78351994 62.52267981 104.77282141 33.81181788 104.77683574 C30.7473658 104.77723106 27.6829137 104.77759261 24.61846161 104.77793312 C23.86397369 104.77802385 23.10948577 104.77811458 22.33213458 104.77820807 C10.96871067 104.77937145 -0.39469155 104.77274547 -11.75811005 104.7621212 C-24.68978409 104.75004266 -37.62141051 104.74854072 -50.5530853 104.76091137 C-57.14578533 104.76693671 -63.73841253 104.76792595 -70.33111191 104.75590897 C-76.37628186 104.74501841 -82.42128159 104.74819126 -88.46644369 104.76217065 C-90.64330409 104.76480885 -92.82017797 104.76247892 -94.9970251 104.75443479 C-105.24835194 104.7192081 -115.32378621 104.93313144 -125.48262405 106.41383076 Z M-169.55368042 123.89434814 C-170.87378059 125.91821032 -171.83782729 127.92067983 -172.79586792 130.14044189 C-173.27153198 131.13817627 -173.74719604 132.13591064 -174.23727417 133.16387939 C-177.15026 139.5447055 -179.52267538 145.99426089 -181.54586792 152.70294189 C-181.74438354 153.3499707 -181.94289917 153.99699951 -182.14743042 154.66363525 C-186.13268188 168.50453641 -186.08352964 182.22867959 -186.05656433 196.50071716 C-186.05958786 198.77187469 -186.06347835 201.0430312 -186.0681569 203.31418592 C-186.07841975 209.53234812 -186.07625941 215.75045256 -186.0719763 221.96861947 C-186.06975995 227.99343426 -186.07692591 234.01823362 -186.08373656 240.04304319 C-186.09895037 253.88107338 -186.10068429 267.71908522 -186.09821353 281.55712201 C-186.09637839 292.2464964 -186.09814512 302.93586479 -186.10243797 313.62523842 C-186.10304038 315.1628805 -186.10364158 316.70052258 -186.10424158 318.23816467 C-186.10514887 320.55547288 -186.10605754 322.87278108 -186.10697393 325.19008929 C-186.11539968 346.72671572 -186.1197418 368.26333991 -186.11556721 389.79996777 C-186.11541083 390.61131163 -186.11525446 391.42265549 -186.11509334 392.25858553 C-186.1142876 396.37046012 -186.11344183 400.4823347 -186.11258004 404.59420928 C-186.11240895 405.41078706 -186.11223786 406.22736485 -186.11206159 407.06868742 C-186.11171493 408.72000525 -186.1113664 410.37132308 -186.111016 412.02264091 C-186.10566034 437.70978932 -186.11358636 463.3969034 -186.13204956 489.08404541 C-186.15278701 517.96883643 -186.16348888 546.85360617 -186.15947407 575.73840505 C-186.15907875 578.82112554 -186.1587172 581.90384604 -186.15837669 584.98656654 C-186.15828596 585.74556434 -186.15819523 586.50456214 -186.15810175 587.28655986 C-186.156938 598.72161415 -186.16356715 610.15664688 -186.17418861 621.59169579 C-186.18626371 634.60469393 -186.1877731 647.61764475 -186.17539845 660.63064363 C-186.16937043 667.26573629 -186.16839095 673.90075658 -186.18040085 680.53584862 C-186.19128283 686.61867098 -186.18812863 692.70132408 -186.17413916 698.7841386 C-186.17149861 700.97584573 -186.17383841 703.16756623 -186.18187503 705.35926022 C-186.23836393 721.92421713 -185.18359327 737.9279915 -179.67086792 753.70294189 C-179.37228882 754.57297852 -179.07370972 755.44301514 -178.76608276 756.3394165 C-166.86624923 789.69851505 -141.75478017 814.28090099 -110.32711792 829.54278564 C-94.01932355 836.92098022 -77.05085742 840.3090984 -59.19880867 840.27186966 C-58.270576 840.27392229 -57.34234333 840.27597493 -56.38598239 840.27808976 C-53.28237319 840.28373438 -50.17880872 840.28230565 -47.07519531 840.28088379 C-44.82470266 840.28346889 -42.57421047 840.28648245 -40.32371891 840.28988719 C-34.14407155 840.29794355 -27.96443582 840.299746 -21.78478384 840.30048466 C-15.80275228 840.30214725 -9.82072605 840.30846698 -3.83869776 840.31456307 C12.18286387 840.33060091 28.20442452 840.336524 44.22599273 840.34131182 C51.81044562 840.34365016 59.39489775 840.34725309 66.97935006 840.3510072 C92.95913732 840.36384124 118.93892416 840.37456015 144.91871452 840.3780098 C146.54870198 840.37823143 148.17868945 840.37845321 149.80867691 840.37867515 C151.44252531 840.37889579 153.07637372 840.37911627 154.71022213 840.3793366 C157.98781451 840.37977914 161.26540689 840.38022626 164.54299927 840.38067627 C165.35564782 840.38078566 166.16829638 840.38089505 167.00557064 840.38100776 C193.34311985 840.38463667 219.6806415 840.40055122 246.01818015 840.42386663 C273.88594069 840.44849142 301.75368549 840.46218388 329.62145722 840.46337771 C332.68375596 840.46354916 335.74605469 840.46376458 338.80835342 840.46401215 C339.5623372 840.46406791 340.31632097 840.46412368 341.09315273 840.46418114 C353.1999949 840.46532933 365.30680868 840.47633154 377.41364128 840.4908992 C389.59513769 840.50530264 401.7765979 840.50847955 413.95810048 840.50045922 C420.55076132 840.49640982 427.14334732 840.49744367 433.73600197 840.51151657 C439.78140733 840.52430283 445.82664668 840.52301655 451.87205197 840.51092586 C454.04909338 840.50897703 456.22614675 840.51200925 458.40317141 840.52077022 C478.31602342 840.59577636 496.59979705 838.5115791 515.20413208 831.14044189 C515.93889771 830.85572021 516.67366333 830.57099854 517.43069458 830.27764893 C526.77207812 826.54563417 532.54907723 823.11390577 537.23538208 813.77716064 C538.37656582 811.13929121 538.37656582 811.13929121 538.20413208 808.14044189 C537.23926866 808.21092198 536.27440524 808.28140207 535.28030354 808.35401791 C523.04598682 809.19113417 510.8520133 809.28926164 498.59303284 809.28761292 C496.34332389 809.29091937 494.09361552 809.29464655 491.84390789 809.29875439 C485.70339139 809.30869274 479.56288465 809.31247785 473.42236125 809.3151437 C467.46663185 809.31866676 461.51090909 809.32681594 455.55518424 809.33468764 C439.62116135 809.35543599 423.68713672 809.36598508 407.75310349 809.37481725 C400.20497692 809.37903597 392.65685113 809.38425613 385.10872521 809.38950178 C359.23338892 809.40738014 333.35805238 809.4223745 307.48271084 809.42982197 C305.86131569 809.43029671 304.23992054 809.4307726 302.61852539 809.43124963 C301.41253366 809.43160419 301.41253366 809.43160419 300.18217847 809.43196592 C296.10933683 809.43316701 292.0364952 809.4343825 287.96365356 809.43560791 C287.15541674 809.43584806 286.34717991 809.43608821 285.51445106 809.43633564 C259.31380797 809.4442273 233.11321017 809.46766248 206.91258685 809.50016385 C179.1626742 809.53452384 151.41278804 809.55417855 123.66285378 809.55746621 C120.61210476 809.5578837 117.56135576 809.55836325 114.51060677 809.55888939 C113.75951526 809.55901258 113.00842376 809.55913577 112.23457191 809.5592627 C100.19237423 809.56158641 88.15022958 809.57719903 76.10805075 809.59773124 C63.98792901 809.61806745 51.86787042 809.62342978 39.74773478 809.6139606 C33.19285352 809.60922974 26.63810906 809.61121982 20.08324814 809.63072205 C14.0668488 809.64846676 8.05074358 809.64726505 2.03434063 809.63182475 C-0.12640201 809.62946583 -2.28716564 809.63368151 -4.4478764 809.6456534 C-46.26376965 809.86274091 -81.86575348 797.26259546 -112.79586792 769.14044189 C-113.48164917 768.52684814 -114.16743042 767.91325439 -114.87399292 767.28106689 C-140.452536 743.13683464 -153.7430481 706.18570825 -155.06993163 671.65917826 C-155.21056539 665.78582778 -155.19200002 659.91376336 -155.17008972 654.03918457 C-155.17283717 651.78515808 -155.17689509 649.53113289 -155.18213338 647.27711082 C-155.19262836 641.14346852 -155.18465144 635.00997392 -155.17338288 628.87633824 C-155.16540087 622.92195609 -155.17162992 616.96759243 -155.17735945 611.01321138 C-155.18923189 598.0987233 -155.18424146 585.18428434 -155.17208118 572.26979901 C-155.1615147 560.97012239 -155.15700954 549.67046246 -155.15837669 538.37078094 C-155.15846072 537.6191326 -155.15854475 536.86748426 -155.15863133 536.0930587 C-155.15898362 533.04136112 -155.15936764 529.98966354 -155.15979691 526.93796597 C-155.16375493 498.35760227 -155.15107649 469.77726802 -155.13027035 441.19691275 C-155.11189571 415.83742415 -155.10609066 390.47796377 -155.11154175 365.11846924 C-155.11188818 363.48939495 -155.11223428 361.86032067 -155.11258004 360.23124638 C-155.11275103 359.42583902 -155.11292203 358.62043167 -155.11309821 357.79061802 C-155.11395183 353.73579476 -155.11477561 349.6809715 -155.11556721 345.62614822 C-155.11572429 344.82608749 -155.11588137 344.02602675 -155.11604321 343.20172175 C-155.12003769 321.97075633 -155.11455189 300.73979361 -155.10605592 279.50882983 C-155.10514893 277.22309861 -155.10424329 274.93736738 -155.10334068 272.65163615 C-155.10273958 271.13553805 -155.10213096 269.61943996 -155.10151478 268.10334186 C-155.09730264 257.55819709 -155.09671126 247.01305764 -155.09862027 236.4679123 C-155.10106844 222.8778134 -155.09694923 209.28774307 -155.08141027 195.69765195 C-155.0740948 189.14972945 -155.07007366 182.60183791 -155.07465363 176.05391121 C-155.07874929 170.05229014 -155.07351011 164.05075008 -155.06102755 158.04914126 C-155.05811543 155.88595646 -155.05850923 153.72276395 -155.06267063 151.55958119 C-155.08416426 139.26407027 -154.57894535 127.31439064 -152.79586792 115.14044189 C-158.22314651 115.14044189 -165.77032708 120.11940226 -169.55368042 123.89434814 Z M-196.72946167 145.01934814 C-221.99179576 172.09457984 -231.29828466 204.59229118 -231.17681885 241.0196991 C-231.18028148 243.29843464 -231.18505008 245.57716851 -231.19100058 247.85589892 C-231.20345709 254.07645385 -231.1973646 260.29686968 -231.18804193 266.51742494 C-231.18193072 272.55016535 -231.18996031 278.58287744 -231.19748402 284.61561222 C-231.21323365 297.70607399 -231.21193106 310.79649168 -231.20324728 323.88695758 C-231.19568513 335.34361956 -231.19373771 346.80026543 -231.19731522 358.2569294 C-231.19754437 359.018412 -231.19777353 359.7798946 -231.19800963 360.56445244 C-231.19894372 363.65597268 -231.19989893 366.74749292 -231.20088892 369.83901315 C-231.21005555 398.81026811 -231.20176217 427.78149508 -231.18559823 456.75274571 C-231.171364 482.46068743 -231.17263529 508.16858455 -231.1869812 533.87652588 C-231.20306499 562.79504202 -231.20940389 591.71353344 -231.20014441 620.63205343 C-231.19918234 623.71808183 -231.19824381 626.80411022 -231.19731522 629.89013863 C-231.19707798 630.64993357 -231.19684075 631.40972852 -231.19659633 632.19254755 C-231.19319197 643.63795881 -231.1971597 655.08335214 -231.20475388 666.52876091 C-231.21335138 679.55081503 -231.21114531 692.57281838 -231.19491164 705.59486621 C-231.18690681 712.23403473 -231.18390408 718.87313288 -231.1938591 725.51230621 C-231.20284693 731.59867375 -231.19780604 737.68486794 -231.18192644 743.77121992 C-231.17859588 745.96415172 -231.18023346 748.1570984 -231.18755381 750.35002052 C-231.23858086 766.91642396 -230.18505511 782.92682479 -224.67086792 798.70294189 C-224.37156372 799.57370361 -224.07225952 800.44446533 -223.7638855 801.34161377 C-218.72827316 815.44184255 -211.5060071 827.78045122 -201.79586792 839.14044189 C-201.36016479 839.65445557 -200.92446167 840.16846924 -200.47555542 840.69805908 C-178.8929426 865.8935508 -147.99671512 882.31945258 -114.79586792 885.14044189 C-111.58451914 885.27032961 -108.37845926 885.27854399 -105.16478062 885.27186966 C-103.76691709 885.27494861 -103.76691709 885.27494861 -102.34081391 885.27808976 C-99.22470863 885.28373468 -96.10864791 885.28230562 -92.99253845 885.28088379 C-90.73308351 885.28346886 -88.47362902 885.28648242 -86.21417516 885.28988719 C-80.00979406 885.29794373 -73.80542453 885.29974601 -67.60103881 885.30048466 C-61.59516108 885.30214721 -55.58928927 885.3084669 -49.58341483 885.31456307 C-33.49835638 885.33060077 -17.41329891 885.33652389 -1.32823391 885.34131182 C6.28578648 885.34365008 13.89980612 885.34725299 21.51382592 885.3510072 C47.59349291 885.36384095 73.67315948 885.3745601 99.75282955 885.3780098 C101.38906629 885.37823143 103.02530303 885.37845321 104.66153977 885.37867515 C106.30165621 885.37889579 107.94177265 885.37911627 109.58188909 885.3793366 C112.87206709 885.37977914 116.1622451 885.38022626 119.4524231 885.38067627 C120.26819209 885.38078566 121.08396109 885.38089505 121.92445036 885.38100776 C148.36599291 885.38463706 174.80750803 885.40055323 201.24904007 885.42386663 C229.22518816 885.44848786 257.20132057 885.4621837 285.1774798 885.46337771 C288.25127542 885.46354916 291.32507104 885.46376458 294.39886665 885.46401215 C295.15568415 885.46406791 295.91250165 885.46412368 296.69225301 885.46418114 C308.84764394 885.4653296 321.0030066 885.47633415 333.158388 885.4908992 C345.38691578 885.50529801 357.61540751 885.50848214 369.84394144 885.50045922 C376.46280674 885.49640812 383.08159748 885.49745157 389.70045662 885.51151657 C395.76863135 885.52429308 401.83664063 885.52302501 407.90481526 885.51092586 C410.09126008 885.50897536 412.27771677 885.5120171 414.46414494 885.52077022 C430.36920063 885.58037447 446.18899984 884.85378567 461.32913208 879.45294189 C462.06011108 879.20020508 462.79109009 878.94746826 463.54421997 878.68707275 C481.75007859 872.1593336 496.83829751 861.91240285 511.20413208 849.14044189 C506.75492914 847.65737425 502.90534619 849.30991584 498.50686646 850.49395752 C483.40982386 854.33406845 468.23665073 854.43090689 452.76902771 854.40113831 C450.52629268 854.40416367 448.28355869 854.40805508 446.0408265 854.41273087 C439.91504488 854.42297 433.78932206 854.42083949 427.66353571 854.41655028 C421.72358989 854.41433021 415.78365706 854.42150542 409.84371634 854.42831053 C396.20479067 854.44350789 382.56588364 854.44525998 368.92695127 854.44278751 C358.39022972 854.44095097 347.85351423 854.44272201 337.31679344 854.44701195 C335.80006062 854.44761436 334.2833278 854.44821556 332.76659497 854.44881555 C330.48068433 854.44972286 328.19477368 854.45063153 325.90886304 854.4515479 C304.66981127 854.45997113 283.43076177 854.46431752 262.19170856 854.46014118 C261.39191843 854.45998481 260.59212829 854.45982843 259.76810208 854.45966732 C255.71495971 854.4588616 251.66181734 854.45801583 247.60867498 854.45715401 C246.80378838 854.45698293 245.99890179 854.45681184 245.16962469 854.45663557 C243.54195029 854.45628891 241.91427588 854.45594038 240.28660148 854.45558998 C214.96816366 854.45023452 189.64976067 854.4581608 164.33132935 854.47662354 C135.8486126 854.49736968 107.36591744 854.50806123 78.88319272 854.50404805 C75.84231166 854.50365274 72.80143061 854.50329119 69.76054955 854.50295067 C68.63753859 854.50281457 68.63753859 854.50281457 67.49184054 854.50267572 C56.22188494 854.50151292 44.95195124 854.50813386 33.68200111 854.51876259 C20.85434613 854.53084848 8.02673916 854.53233471 -4.80091657 854.51997242 C-11.339191 854.51395223 -17.87739083 854.51294409 -24.41566086 854.52497482 C-30.41340177 854.53588223 -36.41097132 854.53267279 -42.40870438 854.51871314 C-44.56605512 854.51607953 -46.72341952 854.51839018 -48.88075682 854.526449 C-85.90169236 854.65502557 -121.29057237 845.91517863 -149.79586792 821.14044189 C-150.62602417 820.43145752 -151.45618042 819.72247314 -152.31149292 818.99200439 C-180.32124651 794.50494988 -196.71285062 760.06435248 -199.79586792 723.14044189 C-200.15465237 715.66883526 -200.07084966 708.18302447 -200.05656433 700.70497131 C-200.05958907 698.45001226 -200.06348016 696.19505422 -200.0681569 693.94009799 C-200.07840414 687.77592182 -200.07626343 681.61180402 -200.0719763 675.44762313 C-200.06975751 669.47204659 -200.07692955 663.49648298 -200.08373656 657.52091152 C-200.09893954 643.79873671 -200.10068542 630.07658042 -200.09821353 616.35439894 C-200.09637747 605.75376235 -200.09814704 595.15313179 -200.10243797 584.55249596 C-200.10304039 583.02692445 -200.10364159 581.50135294 -200.10424158 579.97578144 C-200.10514888 577.676589 -200.10605755 575.37739657 -200.10697393 573.07820414 C-200.11539802 551.71376358 -200.11974295 530.34932529 -200.11556721 508.98488331 C-200.11541083 508.18025335 -200.11525446 507.3756234 -200.11509334 506.54661072 C-200.11428762 502.46887991 -200.11344184 498.39114911 -200.11258004 494.31341831 C-200.11240895 493.50363935 -200.11223786 492.6938604 -200.11206159 491.85954269 C-200.11171493 490.22197442 -200.1113664 488.58440615 -200.111016 486.94683788 C-200.10566047 461.4741681 -200.11358668 436.00153295 -200.13204956 410.52886963 C-200.15279271 381.87696966 -200.16348782 353.22509114 -200.15947407 324.57318324 C-200.15907876 321.51461105 -200.15871721 318.45603886 -200.15837669 315.39746666 C-200.15828596 314.64442931 -200.15819523 313.89139197 -200.15810175 313.1155353 C-200.15693862 301.77659244 -200.16356238 290.43767133 -200.17418861 279.0987339 C-200.18627079 266.19343884 -200.18776499 253.2881915 -200.17539845 240.38289569 C-200.16937556 233.80424694 -200.16837729 227.22567236 -200.18040085 220.64702797 C-200.19129949 214.61352496 -200.18810905 208.58019239 -200.17413916 202.54669722 C-200.17150316 200.37520257 -200.17382386 198.20369439 -200.18187503 196.03221307 C-200.24427902 177.93098217 -198.31089563 160.68820917 -193.79586792 143.14044189 C-195.12569225 143.0242932 -195.12569225 143.0242932 -196.72946167 145.01934814 Z " fill="#33485D" transform="translate(246.79586791992188,-0.14044189453125)"/>
<path d="M0 0 C1.64256384 -0.00689819 1.64256384 -0.00689819 3.3183108 -0.01393574 C4.52607485 -0.00879218 5.7338389 -0.00364862 6.97820187 0.00165081 C8.2575059 -0.00076361 9.53680993 -0.00317802 10.85488075 -0.0056656 C14.41297432 -0.01209456 17.97095455 -0.00599908 21.52904069 0.00209868 C25.36342163 0.00866402 29.19778966 0.00372976 33.0321722 0.00021648 C40.54626647 -0.00483111 48.06031681 0.00082302 55.57440562 0.01006678 C64.3179087 0.02043743 73.06140222 0.02038095 81.80491029 0.01989421 C97.40084568 0.0193933 112.99676057 0.0285631 128.59268856 0.04307842 C143.73982777 0.05716883 158.88694895 0.06424911 174.03409481 0.06358624 C175.43361077 0.0635263 175.43361077 0.0635263 176.86139978 0.06346516 C178.25845309 0.06340462 178.25845309 0.06340462 179.68372971 0.06334287 C196.90931696 0.06265367 214.13489652 0.06853912 231.36048128 0.07749609 C237.46102709 0.08051703 243.56157149 0.08157619 249.66211796 0.08202839 C257.091714 0.08270935 264.52129709 0.08715766 271.95088763 0.0963612 C275.74448495 0.10098952 279.53806566 0.10402089 283.33166599 0.10276699 C287.43619395 0.10147606 291.54067236 0.10789851 295.64519405 0.1151762 C296.85518883 0.1136276 298.0651836 0.112079 299.31184489 0.11048347 C300.4042797 0.11370791 301.49671452 0.11693236 302.62225342 0.12025452 C303.57068747 0.12095894 304.51912151 0.12166337 305.49629599 0.12238914 C307.74820614 0.24888897 307.74820614 0.24888897 309.74820614 1.24888897 C309.74820614 62.62888897 309.74820614 124.00888897 309.74820614 187.24888897 C230.23719209 187.28922032 230.23719209 187.28922032 197.11344051 187.29771709 C189.53100234 187.29967511 181.94856419 187.30169563 174.36612606 187.30382061 C173.41572742 187.30408436 172.46532878 187.30434811 171.48613018 187.30461985 C156.12176634 187.30897489 140.75740623 187.31686186 125.3930446 187.32604177 C109.63727711 187.33537736 93.88151157 187.34094438 78.12574142 187.34297746 C68.39544565 187.34435289 58.66516039 187.34870453 48.93486785 187.35680544 C42.27187195 187.36207173 35.60888153 187.36369353 28.9458837 187.36239035 C25.09572098 187.36174678 21.2455767 187.36276653 17.39541721 187.36809444 C13.23126806 187.37381513 9.06715871 187.37189022 4.90300655 187.36914349 C3.67248879 187.37205633 2.44197102 187.37496917 1.17416483 187.37797028 C0.06793739 187.37597923 -1.03829006 187.37398818 -2.17803955 187.3719368 C-3.62192611 187.37250638 -3.62192611 187.37250638 -5.09498209 187.37308747 C-7.25179386 187.24888897 -7.25179386 187.24888897 -8.25179386 186.24888897 C-8.35608212 183.87547755 -8.39512644 181.5309157 -8.39223576 179.15674114 C-8.39520688 178.40592421 -8.398178 177.65510729 -8.40123916 176.88153833 C-8.40996356 174.34650679 -8.41143753 171.81152226 -8.41292667 169.27647686 C-8.41755216 167.46678853 -8.42257645 165.65710117 -8.42797184 163.84741497 C-8.44112273 158.91774543 -8.44754587 153.98808952 -8.4519825 149.05840516 C-8.45490853 145.98240139 -8.4590124 142.90640139 -8.46348667 139.83039951 C-8.47716789 130.21741568 -8.48683182 120.60444041 -8.49068856 110.99144751 C-8.49517282 99.87375429 -8.51273515 88.75618381 -8.54168916 77.63852793 C-8.56326309 69.05850248 -8.57339052 60.47851167 -8.57472968 51.89845937 C-8.57578068 46.76753623 -8.58175084 41.63672835 -8.59954929 36.50583363 C-8.61595633 31.68205294 -8.6182216 26.85847509 -8.60941029 22.03467655 C-8.60863597 20.26008469 -8.61303409 18.48548225 -8.62286854 16.71091747 C-8.63546934 14.2963725 -8.62977694 11.88255892 -8.61928654 9.46802044 C-8.62734294 8.75859376 -8.63539935 8.04916707 -8.64369988 7.31824261 C-8.62373066 5.36578751 -8.62373066 5.36578751 -8.25179386 2.24888897 C-4.91718431 0.02581594 -3.88602692 -0.00089047 0 0 Z M7.74820614 16.24888897 C7.74820614 67.72888897 7.74820614 119.20888897 7.74820614 172.24888897 C26.88820614 172.24888897 46.02820614 172.24888897 65.74820614 172.24888897 C67.06820614 170.26888897 68.38820614 168.28888897 69.74820614 166.24888897 C72.55736088 164.8443116 74.63631148 164.9999374 77.74820614 165.24888897 C81.02661076 167.07022487 82.18357194 168.92747252 83.74820614 172.24888897 C111.11153324 172.27221448 138.47485886 172.28986643 165.83819389 172.30070114 C178.54249497 172.30586484 191.24678988 172.31290894 203.951087 172.32432842 C215.01979039 172.33427301 226.08848932 172.34074186 237.15719706 172.34297746 C243.02191442 172.34428496 248.886619 172.34737322 254.75133228 172.35461903 C260.26449142 172.36137569 265.77763244 172.36350666 271.29079533 172.36199665 C273.32058593 172.36227314 275.35037711 172.36428035 277.38016415 172.36809444 C280.13864531 172.37302618 282.89705694 172.37188919 285.65553951 172.36914349 C286.87681896 172.37351275 286.87681896 172.37351275 288.12277073 172.37797028 C291.73298604 172.70794878 291.73298604 172.70794878 294.74820614 171.24888897 C294.84493308 169.24927442 294.87007644 167.24618704 294.86846066 165.24423504 C294.86983815 163.94139537 294.87121565 162.6385557 294.87263489 161.29623604 C294.86908761 159.83310646 294.86544971 158.3699771 294.86173153 156.90684795 C294.86142542 155.35481837 294.86155829 153.80278865 294.86209679 152.25075912 C294.86232331 148.08013346 294.85651148 143.90953627 294.84948635 139.73891735 C294.84380746 135.83082263 294.84352411 131.92273496 294.84281063 128.01463604 C294.83755534 116.57188322 294.8235943 105.12913574 294.81070614 93.68638897 C294.79008114 68.13201397 294.76945614 42.57763897 294.74820614 16.24888897 C224.78820614 16.24888897 154.82820614 16.24888897 82.74820614 16.24888897 C81.75820614 18.22888897 80.76820614 20.20888897 79.74820614 22.24888897 C75.80465424 23.5348298 72.72296455 23.3010309 68.74820614 22.24888897 C68.08820614 20.26888897 67.42820614 18.28888897 66.74820614 16.24888897 C47.27820614 16.24888897 27.80820614 16.24888897 7.74820614 16.24888897 Z " fill="#34495E" transform="translate(314.25179386138916,334.7511110305786)"/>
<path d="M0 0 C1.57006635 2.21939232 2.73628612 4.1932042 3.92578125 6.60546875 C4.45270821 7.61895134 4.45270821 7.61895134 4.99028015 8.65290833 C6.11441592 10.82296111 7.21404956 13.00435086 8.3125 15.1875 C9.40051114 17.31235885 10.49352291 19.43458374 11.58737183 21.55644226 C12.31570203 22.96941103 13.04219107 24.38333029 13.76687622 25.798172 C16.71066112 31.52042609 19.86402436 37.09692876 23.08666992 42.66577148 C26.1658157 48.03158671 29.08129397 53.4832481 32 58.9375 C32.9132605 60.6383374 32.9132605 60.6383374 33.8449707 62.37353516 C36.97198488 68.20056491 40.08537811 74.0346923 43.1875 79.875 C46.72306087 86.52124747 50.35018108 93.11552741 53.98706055 99.70678711 C57.2220656 105.57246808 60.41344228 111.45873788 63.5625 117.37109375 C64.55356147 119.18355128 65.59924418 120.9668361 66.6875 122.72265625 C68 125 68 125 68 127 C62.39 127 56.78 127 51 127 C48.53241691 122.56010361 46.06552494 118.11985279 43.60546875 113.67578125 C39.03083995 105.41808563 34.41860695 97.18707004 29.69140625 89.015625 C28.62741359 87.11862193 27.60049625 85.19985432 26.62890625 83.25390625 C24.33178402 78.66517048 21.84460168 74.18520382 19.375 69.6875 C15.6928211 62.9661942 12.0501616 56.22940033 8.5 49.4375 C3.27818149 39.46957173 -2.36771175 29.73997187 -8 20 C-14.14554859 21.68172107 -19.45816687 24.81736055 -25 27.875 C-26.05147217 28.45000244 -27.10294434 29.02500488 -28.1862793 29.61743164 C-30.37445882 30.81442233 -32.56154097 32.01342114 -34.74755859 33.21435547 C-38.828687 35.45496297 -42.91712205 37.68200931 -47.00585938 39.90869141 C-50.49162804 41.80742865 -53.9753316 43.70993324 -57.45898438 45.61254883 C-60.12456641 47.06801603 -62.79073166 48.52241025 -65.45703125 49.9765625 C-69.11514308 51.97163274 -72.77268202 53.9677463 -76.4296875 55.96484375 C-100.25269365 68.97233874 -100.25269365 68.97233874 -109.7890625 74 C-118.94346705 78.82635015 -128.05018328 83.7327665 -137.12890625 88.70019531 C-141.88619146 91.30308146 -146.65068414 93.8891687 -151.4375 96.4375 C-157.53985497 99.70604369 -163.54539902 103.14010387 -169.5625 106.5625 C-176.22521099 110.35086169 -182.88420617 114.01672116 -189.7890625 117.34765625 C-194.44770166 119.74498516 -198.96310358 122.38114751 -203.5 125 C-209.80186246 128.63579542 -216.09776267 132.14099172 -222.6484375 135.3125 C-230.28237171 139.15615918 -237.73278284 143.361966 -245.22314453 147.4765625 C-249.8105551 149.99330612 -254.40533025 152.49654028 -259 155 C-257.74826909 159.03212436 -256.26450668 162.64032321 -254.2421875 166.34375 C-253.70231201 167.33455566 -253.16243652 168.32536133 -252.60620117 169.34619141 C-252.03490479 170.38694824 -251.4636084 171.42770508 -250.875 172.5 C-250.29403564 173.58587402 -249.71307129 174.67174805 -249.11450195 175.79052734 C-245.57441768 182.42261907 -245.57441768 182.42261907 -241.36328125 188.6328125 C-232.95470538 200.19649135 -235.31616372 215.36272649 -236 229 C-240.23951532 227.58682823 -241.10189609 224.58942912 -243.01953125 220.81640625 C-243.59111214 219.72210548 -243.59111214 219.72210548 -244.17424011 218.60569763 C-245.39617901 216.2626065 -246.60488715 213.91300207 -247.8125 211.5625 C-249.39787861 208.49897109 -250.98868179 205.43829619 -252.58203125 202.37890625 C-252.96828171 201.63552002 -253.35453217 200.89213379 -253.75248718 200.1262207 C-256.20042935 195.44267043 -258.80369401 190.89927137 -261.57641602 186.39916992 C-265.09486365 180.46952066 -268.1004654 174.24092982 -271.23242188 168.1015625 C-273.6464915 163.40515183 -276.0490646 158.8204419 -278.96484375 154.4140625 C-279.63644531 153.28742188 -280.30804688 152.16078125 -281 151 C-279.69308679 147.07926038 -278.44999293 146.9118334 -274.8125 145.0625 C-273.62821899 144.44924203 -272.44468223 143.83454561 -271.26171875 143.21875 C-270.59317871 142.87328125 -269.92463867 142.5278125 -269.23583984 142.171875 C-264.83231343 139.86384631 -260.48421583 137.45282136 -256.125 135.0625 C-249.35588259 131.36306555 -242.57328581 127.69360369 -235.76000977 124.07617188 C-223.54873603 117.57943546 -211.40274226 110.95560595 -199.375 104.125 C-195.07446418 101.68291763 -190.7641262 99.34757179 -186.3125 97.1875 C-180.59985925 94.39742443 -175.12637839 91.24201309 -169.625 88.0625 C-162.68260259 84.05243553 -155.72390276 80.27972338 -148.515625 76.76953125 C-143.50535718 74.24769645 -138.62917599 71.50118589 -133.73706055 68.7590332 C-129.06031104 66.13935953 -124.36363215 63.56841423 -119.625 61.0625 C-113.75702076 57.95746351 -107.93606384 54.77271536 -102.125 51.5625 C-95.98669647 48.17345175 -89.83087418 44.82620911 -83.625 41.5625 C-76.25733291 37.68665953 -68.94488563 33.71458307 -61.640625 29.72070312 C-53.82036724 25.44484004 -45.9921592 21.18389149 -38.14501953 16.95751953 C-32.84559075 14.10039869 -27.57122687 11.20634886 -22.32421875 8.25390625 C-21.23415527 7.64667725 -20.1440918 7.03944824 -19.02099609 6.41381836 C-16.92497399 5.24523261 -14.83511554 4.06550315 -12.75244141 2.87329102 C-11.80933105 2.35049561 -10.8662207 1.8277002 -9.89453125 1.2890625 C-9.06800049 0.82193848 -8.24146973 0.35481445 -7.38989258 -0.12646484 C-4.32283744 -1.24751125 -3.01103946 -1.30331722 0 0 Z " fill="#34495E" transform="translate(527,193)"/>
<path d="M0 0 C14 0 14 0 16.9921875 2.55078125 C17.97509766 4.3203125 17.97509766 4.3203125 18.875 6.3125 C19.64908939 7.75755791 20.42530642 9.20147719 21.203125 10.64453125 C21.62658203 11.47162598 22.05003906 12.2987207 22.48632812 13.15087891 C24.89284722 17.68056887 27.55804803 22.05223383 30.19824219 26.44799805 C33.49283939 31.94904732 36.74166352 37.47739579 40 43 C40.33 28.81 40.66 14.62 41 0 C45.29 0 49.58 0 54 0 C54 22.44 54 44.88 54 68 C40 68 40 68 37.0078125 65.44921875 C36.02490234 63.6796875 36.02490234 63.6796875 35.125 61.6875 C34.35091061 60.24244209 33.57469358 58.79852281 32.796875 57.35546875 C32.37341797 56.52837402 31.94996094 55.7012793 31.51367188 54.84912109 C29.10715278 50.31943113 26.44195197 45.94776617 23.80175781 41.55200195 C20.50716061 36.05095268 17.25833648 30.52260421 14 25 C13.67 39.19 13.34 53.38 13 68 C8.71 68 4.42 68 0 68 C0 45.56 0 23.12 0 0 Z " fill="#33485D" transform="translate(367,558)"/>
<path d="M0 0 C8.39652554 5.83136309 13.38782454 13.76965733 15.74609375 23.6796875 C17.03544125 33.73133535 14.7750257 42.67115707 8.99609375 50.9921875 C3.17471159 58.14794189 -4.95333911 63.5982262 -14.25390625 64.6796875 C-25.41785725 65.49997781 -33.80191259 62.91040216 -42.69921875 56.0546875 C-50.48996061 48.8119183 -54.14208082 40.29858167 -54.56640625 29.8046875 C-54.30314826 19.69248356 -50.47901582 11.30576472 -43.625 3.92578125 C-31.36686809 -7.42223414 -14.16819485 -8.29956648 0 0 Z M-36.1796875 14.91015625 C-40.64572469 21.44400063 -42.0638884 26.7911657 -41.25390625 34.6796875 C-39.13680288 42.23113902 -33.40727629 47.16580563 -26.87890625 51.1171875 C-19.38662872 52.72267554 -13.28388155 52.09448889 -6.5234375 48.37890625 C-1.88562747 44.90653557 0.93347626 40.11753996 2.74609375 34.6796875 C3.72175888 27.08343753 2.37018471 20.85577221 -2.25390625 14.6796875 C-8.17835342 9.56453434 -13.67476217 7.22212095 -21.4921875 7.34765625 C-27.37858334 8.05535589 -32.28834074 10.40314002 -36.1796875 14.91015625 Z " fill="#33485D" transform="translate(697.25390625,562.3203125)"/>
<path d="M0 0 C8.39652554 5.83136309 13.38782454 13.76965733 15.74609375 23.6796875 C17.03544125 33.73133535 14.7750257 42.67115707 8.99609375 50.9921875 C3.17471159 58.14794189 -4.95333911 63.5982262 -14.25390625 64.6796875 C-25.41785725 65.49997781 -33.80191259 62.91040216 -42.69921875 56.0546875 C-50.48996061 48.8119183 -54.14208082 40.29858167 -54.56640625 29.8046875 C-54.30314826 19.69248356 -50.47901582 11.30576472 -43.625 3.92578125 C-31.36686809 -7.42223414 -14.16819485 -8.29956648 0 0 Z M-36.1796875 14.91015625 C-40.64572469 21.44400063 -42.0638884 26.7911657 -41.25390625 34.6796875 C-39.13680288 42.23113902 -33.40727629 47.16580563 -26.87890625 51.1171875 C-19.38662872 52.72267554 -13.28388155 52.09448889 -6.5234375 48.37890625 C-1.88562747 44.90653557 0.93347626 40.11753996 2.74609375 34.6796875 C3.72175888 27.08343753 2.37018471 20.85577221 -2.25390625 14.6796875 C-8.17835342 9.56453434 -13.67476217 7.22212095 -21.4921875 7.34765625 C-27.37858334 8.05535589 -32.28834074 10.40314002 -36.1796875 14.91015625 Z " fill="#33485D" transform="translate(342.25390625,562.3203125)"/>
<path d="M0 0 C5.15584435 4.12467548 9.80738693 10.3730057 11 17 C11.85299419 26.53675469 10.21400416 33.64332639 5.3125 41.8125 C-0.07864408 46.91223089 -6.28686315 49.679902 -13.625 50.3125 C-18 50 -18 50 -28 46 C-28 53.26 -28 60.52 -28 68 C-32.29 68 -36.58 68 -41 68 C-41 44.57 -41 21.14 -41 -3 C-36.25 -1.8125 -36.25 -1.8125 -34 1 C-34 1.66 -34 2.32 -34 3 C-33.25234375 2.57847656 -32.5046875 2.15695312 -31.734375 1.72265625 C-30.74953125 1.17480469 -29.7646875 0.62695312 -28.75 0.0625 C-27.28820312 -0.75541016 -27.28820312 -0.75541016 -25.796875 -1.58984375 C-17.09185071 -5.97882946 -8.38532129 -4.494768 0 0 Z M-25 13 C-28.01584552 17.4232401 -28.91529805 21.7319512 -28 27 C-26.64310573 30.6621555 -24.73119227 33.37036221 -21.75 35.9375 C-18.09341418 37.3502718 -14.83083576 37.6685184 -11 37 C-7.34089516 35.20496744 -5.45176122 33.64752442 -3.125 30.3125 C-1.68106011 26.0608992 -1.28346781 22.44249957 -2 18 C-4.19205378 13.61589244 -6.43115383 10.86907343 -11 9 C-17.05537964 8.32718004 -20.2696145 8.81965932 -25 13 Z " fill="#33485D" transform="translate(272,577)"/>
<path d="M0 0 C2.09260071 1.24485202 4.02514604 2.56823088 6 4 C6.763125 3.175 7.52625 2.35 8.3125 1.5 C11 -1 11 -1 14 -1 C14 22.1 14 45.2 14 69 C9.71 69 5.42 69 1 69 C1 61.74 1 54.48 1 47 C-2.3 48.32 -5.6 49.64 -9 51 C-15.41871137 51.93363075 -21.34967465 50.01566862 -27 47 C-33.74299487 41.46387942 -37.20769937 35.16790997 -38.30859375 26.59765625 C-38.69820522 19.12419989 -36.83076035 12.05467 -32.52734375 5.890625 C-23.89516474 -3.65987093 -11.31690666 -5.67031592 0 0 Z M-23.875 16.75 C-25.70477855 22.03602692 -25.72815148 26.07039859 -23.75 31.3125 C-21.48663262 34.78838562 -20.02479344 36.5099468 -15.91796875 37.50390625 C-12.20246755 38.08926714 -9.71979338 38.28791735 -6.1875 36.875 C-1.87511692 33.17867165 0.8373872 29.95135364 1.3125 24.25 C1.23130765 18.64772779 -1.49852939 15.58488564 -5.25 11.625 C-12.51731192 7.33067932 -19.33662713 10.09371979 -23.875 16.75 Z " fill="#33485D" transform="translate(207,576)"/>
<path d="M0 0 C2.09594105 1.55108426 3.38778473 2.9271518 5 5 C3.02 8.3 1.04 11.6 -1 15 C-6 13 -6 13 -9.1875 11.375 C-14.6659319 9.07453293 -20.04404607 9.07196795 -25.6875 10.84375 C-31.85672994 13.5611489 -35.23842556 16.86031358 -38 23 C-39.89340495 28.68021484 -39.92131907 34.74101669 -37.4375 40.25 C-34.60265497 45.21600512 -30.54782173 48.48507897 -25.6875 51.375 C-19.71926201 52.76296232 -13.95478847 52.19095769 -8 51 C-8 44.4 -8 37.8 -8 31 C-3.71 31 0.58 31 5 31 C5.21587464 35.39844572 5.37444477 39.78634061 5.5 44.1875 C5.60054687 46.05631836 5.60054687 46.05631836 5.703125 47.96289062 C5.89602316 56.95676734 5.89602316 56.95676734 3.35498047 59.9152832 C1.27593308 61.2483998 -0.67961927 62.16561652 -3 63 C-3.86367188 63.37769531 -4.72734375 63.75539063 -5.6171875 64.14453125 C-15.05817535 66.93762627 -23.89426985 67.08378201 -33 63 C-42.32623351 57.7443325 -49.3556487 50.38624243 -52.4375 39.9375 C-54.09364856 28.34446007 -52.59171403 18.69165075 -45.66015625 9.03515625 C-34.23550414 -4.97012316 -16.0598525 -7.60474105 0 0 Z " fill="#33485D" transform="translate(631,561)"/>
<path d="M0 0 C3.08347822 1.36072861 5.05474497 2.8600167 7.3203125 5.34375 C8.24058228 6.34148438 8.24058228 6.34148438 9.17944336 7.359375 C9.82147705 8.06578125 10.46351074 8.7721875 11.125 9.5 C12.46092035 10.94913394 13.79816326 12.39704976 15.13671875 13.84375 C15.79075684 14.55144531 16.44479492 15.25914062 17.11865234 15.98828125 C20.96717519 20.10349385 24.97382984 24.05908992 29 28 C27.33444756 32.33254464 24.12568614 35.13555776 20.875 38.3125 C20.28968506 38.89064453 19.70437012 39.46878906 19.10131836 40.06445312 C14.87474998 44.21228731 10.55300645 48.2109901 6 52 C5.40058594 52.50402344 4.80117188 53.00804687 4.18359375 53.52734375 C2.79421211 54.69107176 1.39800511 55.84664578 0 57 C-2.97 53.7 -5.94 50.4 -9 47 C-3.82416141 40.36845681 2.38651198 35.16678752 9 30 C7.5735422 26.7413364 5.83295838 24.5975146 3.3046875 22.109375 C2.58925781 21.40039062 1.87382813 20.69140625 1.13671875 19.9609375 C0.39035156 19.23132813 -0.35601563 18.50171875 -1.125 17.75 C-1.87910156 17.00492188 -2.63320313 16.25984375 -3.41015625 15.4921875 C-5.26900772 13.6568658 -7.13237005 11.8263809 -9 10 C-8.06409496 8.8944811 -7.12620142 7.79064547 -6.1875 6.6875 C-5.66542969 6.07261719 -5.14335937 5.45773437 -4.60546875 4.82421875 C-3.12827531 3.14575321 -1.59960869 1.56117966 0 0 Z " fill="#33485D" transform="translate(515,560)"/>
<path d="M0 0 C3.08347822 1.36072861 5.05474497 2.8600167 7.3203125 5.34375 C8.24058228 6.34148438 8.24058228 6.34148438 9.17944336 7.359375 C9.82147705 8.06578125 10.46351074 8.7721875 11.125 9.5 C12.46092035 10.94913394 13.79816326 12.39704976 15.13671875 13.84375 C15.79075684 14.55144531 16.44479492 15.25914062 17.11865234 15.98828125 C20.96717519 20.10349385 24.97382984 24.05908992 29 28 C27.33444756 32.33254464 24.12568614 35.13555776 20.875 38.3125 C20.28968506 38.89064453 19.70437012 39.46878906 19.10131836 40.06445312 C14.87474998 44.21228731 10.55300645 48.2109901 6 52 C5.40058594 52.50402344 4.80117188 53.00804687 4.18359375 53.52734375 C2.79421211 54.69107176 1.39800511 55.84664578 0 57 C-2.97 53.7 -5.94 50.4 -9 47 C-3.82416141 40.36845681 2.38651198 35.16678752 9 30 C7.5735422 26.7413364 5.83295838 24.5975146 3.3046875 22.109375 C2.58925781 21.40039062 1.87382812 20.69140625 1.13671875 19.9609375 C0.39035156 19.23132813 -0.35601562 18.50171875 -1.125 17.75 C-1.87910156 17.00492188 -2.63320313 16.25984375 -3.41015625 15.4921875 C-5.26900772 13.6568658 -7.13237005 11.8263809 -9 10 C-8.06409496 8.8944811 -7.12620142 7.79064547 -6.1875 6.6875 C-5.66542969 6.07261719 -5.14335937 5.45773437 -4.60546875 4.82421875 C-3.12827531 3.14575321 -1.59960869 1.56117966 0 0 Z " fill="#33485D" transform="translate(468,560)"/>
<path d="M0 0 C5.28 0 10.56 0 16 0 C15.44448986 17.04539001 14.42199134 34.00513258 13 51 C9.7 51 6.4 51 3 51 C2.20420061 45.91246407 1.73811783 40.86593616 1.46484375 35.72265625 C1.42186661 34.95247665 1.37888947 34.18229706 1.33460999 33.38877869 C1.24495935 31.76943904 1.15680125 30.15001613 1.07006836 28.53051758 C0.93805558 26.07284324 0.80044298 23.61552891 0.66210938 21.15820312 C0.5751868 19.57553914 0.48858759 17.99285736 0.40234375 16.41015625 C0.36173325 15.68594986 0.32112274 14.96174347 0.27928162 14.21559143 C0.2424678 13.51804245 0.20565399 12.82049347 0.16772461 12.10180664 C0.13521103 11.50114883 0.10269745 10.90049103 0.06919861 10.28163147 C-0.03469835 6.85591852 0 3.42728811 0 0 Z " fill="#33485D" transform="translate(721,558)"/>
<path d="M0 0 C3.8425303 0.72047443 5.45767292 1.57152696 8 4.5625 C8.66017005 7.36391726 8.60984064 9.75493175 8 12.5625 C6.4375 15.0625 6.4375 15.0625 4 16.5625 C0.5625 17.125 0.5625 17.125 -3 16.5625 C-6.38121991 14.11651113 -7.76936783 12.66953441 -8.625 8.5625 C-7.58351809 3.56338683 -5.03644185 0.94433285 0 0 Z " fill="#34495E" transform="translate(389,404.4375)"/>
<path d="M0 0 C3.7 1.4 3.7 1.4 5 4 C5.28395581 6.93421006 5.49548029 9.15098834 5 12 C2.45767292 14.99097304 0.8425303 15.84202557 -3 16.5625 C-7.10389613 15.79301948 -8.53959272 14.32878632 -11 11 C-11.625 8 -11.625 8 -11 5 C-7.72846952 0.57381171 -5.48700963 -0.8172142 0 0 Z " fill="#34495E" transform="translate(392,374)"/>
<path d="M0 0 C4.58653393 1.87205467 4.58653393 1.87205467 6.0625 4.25 C6.71338557 8.64347757 6.53688867 10.55998011 4 14.25 C1.0625 16.25 1.0625 16.25 -2.5625 16.25 C-5.75335187 15.30456241 -7.03937442 14.88628553 -8.9375 12.25 C-10.37485246 9.37529507 -10.31922649 7.43105412 -9.9375 4.25 C-4.41494875 -1.12722096 -4.41494875 -1.12722096 0 0 Z " fill="#34495E" transform="translate(390.9375,467.75)"/>
<path d="M0 0 C3.34903861 1.23768818 4.85279734 2.10697303 6.875 5.0625 C7.44421855 9.04702984 7.54649179 11.11743748 5.1875 14.4375 C2.57858296 16.27079306 1.05603014 16.9073278 -2.125 17.0625 C-5.05971979 16.31175773 -6.60732815 15.75272913 -8.4375 13.3125 C-9.37365173 10.24873069 -9.64601004 8.25368651 -9.125 5.0625 C-6.16174116 1.74647225 -4.52716343 0.09054327 0 0 Z " fill="#34495E" transform="translate(390.125,435.9375)"/>
<path d="M0 0 C2.63183484 1.72430559 2.96429365 2.87090782 3.8125 5.9375 C4.01028636 9.16801051 3.92199114 10.43734514 2 13 C-0.56265486 14.92199114 -1.83198949 15.01028636 -5.0625 14.8125 C-8.12909218 13.96429365 -9.27569441 13.63183484 -11 11 C-11.85736616 7.90029156 -12.25878885 5.84694533 -11.3125 2.75 C-8.13760231 -1.48319691 -4.87987576 -1.34975287 0 0 Z " fill="#33485D" transform="translate(733,614)"/>
<path d="M0 0 C2 1 2 1 2 1 Z " fill="#34495E" transform="translate(502,253)"/>
</svg>
