<svg width="231" height="89" viewBox="0 0 231 89" fill="none" xmlns="http://www.w3.org/2000/svg">
<path d="M163.52 29.58C163.734 29.58 163.934 29.6233 164.12 29.71C164.307 29.7967 164.47 29.9133 164.61 30.06C164.75 30.2067 164.86 30.3733 164.94 30.56C165.02 30.7467 165.06 30.9433 165.06 31.15C165.06 31.37 165.02 31.5767 164.94 31.77C164.86 31.9567 164.75 32.1233 164.61 32.27C164.47 32.41 164.304 32.5233 164.11 32.61C163.924 32.69 163.72 32.73 163.5 32.73C163.287 32.73 163.087 32.69 162.9 32.61C162.714 32.5233 162.55 32.41 162.41 32.27C162.27 32.13 162.157 31.9667 162.07 31.78C161.99 31.5867 161.95 31.38 161.95 31.16C161.95 30.94 161.99 30.7367 162.07 30.55C162.15 30.3567 162.26 30.19 162.4 30.05C162.54 29.9033 162.707 29.79 162.9 29.71C163.094 29.6233 163.3 29.58 163.52 29.58ZM175.89 32.2L175.01 29.69L174.13 32.2H175.89ZM176.41 33.69H173.61L173.16 35H171.07L173.94 27.46H176.08L178.95 35H176.86L176.41 33.69ZM181.768 33.48H182.198C182.691 33.48 183.044 33.4167 183.258 33.29C183.471 33.1633 183.578 32.96 183.578 32.68C183.578 32.4 183.471 32.1967 183.258 32.07C183.044 31.9433 182.691 31.88 182.198 31.88H181.768V33.48ZM181.768 30.42H182.128C182.741 30.42 183.048 30.1767 183.048 29.69C183.048 29.2033 182.741 28.96 182.128 28.96H181.768V30.42ZM179.808 27.46H182.728C183.421 27.46 183.948 27.6267 184.308 27.96C184.668 28.2933 184.848 28.7733 184.848 29.4C184.848 29.78 184.778 30.0967 184.638 30.35C184.504 30.5967 184.298 30.8067 184.018 30.98C184.298 31.0333 184.534 31.1167 184.728 31.23C184.928 31.3367 185.088 31.47 185.208 31.63C185.334 31.79 185.424 31.97 185.478 32.17C185.531 32.37 185.558 32.5833 185.558 32.81C185.558 33.1633 185.494 33.4767 185.368 33.75C185.248 34.0233 185.074 34.2533 184.848 34.44C184.628 34.6267 184.358 34.7667 184.038 34.86C183.718 34.9533 183.358 35 182.958 35H179.808V27.46ZM192.161 29.98C191.708 29.4267 191.148 29.15 190.481 29.15C190.188 29.15 189.915 29.2033 189.661 29.31C189.415 29.4167 189.201 29.5633 189.021 29.75C188.841 29.93 188.698 30.1467 188.591 30.4C188.491 30.6533 188.441 30.9267 188.441 31.22C188.441 31.52 188.491 31.7967 188.591 32.05C188.698 32.3033 188.841 32.5233 189.021 32.71C189.208 32.8967 189.425 33.0433 189.671 33.15C189.918 33.2567 190.185 33.31 190.471 33.31C191.098 33.31 191.661 33.0433 192.161 32.51V34.83L191.961 34.9C191.661 35.0067 191.381 35.0833 191.121 35.13C190.861 35.1833 190.605 35.21 190.351 35.21C189.831 35.21 189.331 35.1133 188.851 34.92C188.378 34.72 187.958 34.4433 187.591 34.09C187.231 33.73 186.941 33.3067 186.721 32.82C186.501 32.3267 186.391 31.79 186.391 31.21C186.391 30.63 186.498 30.1 186.711 29.62C186.931 29.1333 187.221 28.7167 187.581 28.37C187.948 28.0167 188.371 27.7433 188.851 27.55C189.331 27.35 189.835 27.25 190.361 27.25C190.661 27.25 190.955 27.2833 191.241 27.35C191.535 27.41 191.841 27.5067 192.161 27.64V29.98ZM193.531 34.43C195.321 34.38 198.101 34.28 200.621 34.17L200.581 35.27C198.131 35.41 195.491 35.53 193.691 35.6L193.531 34.43ZM193.481 31.45H201.801V32.57H193.481V31.45ZM195.261 29.53H199.951V30.63H195.261V29.53ZM195.931 32.18L197.301 32.56C196.831 33.5 196.291 34.54 195.841 35.21L194.791 34.86C195.201 34.13 195.681 33.02 195.931 32.18ZM198.411 33.21L199.471 32.66C200.371 33.43 201.301 34.48 201.761 35.24L200.651 35.91C200.231 35.15 199.271 34.01 198.411 33.21ZM197.601 27.68C196.791 28.82 195.231 30.1 193.571 30.89C193.431 30.6 193.111 30.15 192.861 29.89C194.571 29.14 196.171 27.71 196.911 26.53H198.181C199.241 28 200.831 29.14 202.421 29.71C202.131 30.01 201.861 30.44 201.641 30.8C200.141 30.1 198.451 28.84 197.601 27.68ZM206.701 34.44H212.401V35.62H206.701V34.44ZM207.111 29.61H212.161V30.76H207.111V29.61ZM209.021 26.61H210.251V35.01H209.021V26.61ZM203.111 28.36H206.391V29.45H203.111V28.36ZM204.541 31.78L205.731 30.36V35.91H204.541V31.78ZM204.541 26.52H205.731V28.87H204.541V26.52ZM205.611 30.7C205.961 30.94 207.091 31.94 207.361 32.19L206.631 33.16C206.241 32.64 205.401 31.72 204.951 31.28L205.611 30.7ZM205.951 28.36H206.191L206.401 28.32L207.071 28.76C206.311 30.71 204.801 32.46 203.311 33.4C203.201 33.08 202.921 32.49 202.741 32.26C204.101 31.52 205.421 30.05 205.951 28.58V28.36ZM163.52 42.58C163.734 42.58 163.934 42.6233 164.12 42.71C164.307 42.7967 164.47 42.9133 164.61 43.06C164.75 43.2067 164.86 43.3733 164.94 43.56C165.02 43.7467 165.06 43.9433 165.06 44.15C165.06 44.37 165.02 44.5767 164.94 44.77C164.86 44.9567 164.75 45.1233 164.61 45.27C164.47 45.41 164.304 45.5233 164.11 45.61C163.924 45.69 163.72 45.73 163.5 45.73C163.287 45.73 163.087 45.69 162.9 45.61C162.714 45.5233 162.55 45.41 162.41 45.27C162.27 45.13 162.157 44.9667 162.07 44.78C161.99 44.5867 161.95 44.38 161.95 44.16C161.95 43.94 161.99 43.7367 162.07 43.55C162.15 43.3567 162.26 43.19 162.4 43.05C162.54 42.9033 162.707 42.79 162.9 42.71C163.094 42.6233 163.3 42.58 163.52 42.58ZM177.12 40.58H178.25V46.19H177.12V40.58ZM179.19 39.69H180.36V47.43C180.36 48.11 180.23 48.44 179.84 48.63C179.44 48.83 178.82 48.87 177.99 48.87C177.95 48.53 177.77 47.98 177.61 47.63C178.18 47.66 178.76 47.66 178.96 47.66C179.13 47.65 179.19 47.6 179.19 47.43V39.69ZM172.46 47.55H175.55V48.45H172.46V47.55ZM171.41 44.55H176.59V45.46H171.41V44.55ZM171.88 42.05H176.17V42.9H171.88V42.05ZM171.98 43.32H176.04V44.12H171.98V43.32ZM173.43 39.57H174.59V40.91H173.43V39.57ZM173.46 41.51H174.57V45.03H173.46V41.51ZM171.95 45.81H176.16V48.8H175.03V46.7H173.03V48.9H171.95V45.81ZM171.39 40.41H176.7V42.13H175.59V41.31H172.44V42.13H171.39V40.41ZM184.96 44.32H186.2C186.2 44.32 186.19 44.67 186.17 44.83C186.01 47.04 185.83 48.01 185.47 48.4C185.19 48.71 184.91 48.8 184.47 48.85C184.13 48.89 183.52 48.88 182.9 48.87C182.87 48.48 182.69 47.95 182.45 47.61C183.06 47.66 183.7 47.67 183.97 47.67C184.17 47.67 184.29 47.65 184.42 47.55C184.67 47.34 184.83 46.46 184.95 44.49L184.96 44.32ZM182.15 42.15H183.38C183.2 43.4 182.96 44.92 182.75 45.89L181.55 45.7C181.77 44.76 182.02 43.31 182.15 42.15ZM188.38 39.66H189.59V48.9H188.38V39.66ZM182.41 44.32H185.31V45.43H182.26L182.41 44.32ZM182.57 42.15H184.94V41.01H181.91V39.9H186.12V43.27H182.57V42.15ZM197.35 48H191.28L193.15 46.06C193.643 45.5467 194.03 45.1133 194.31 44.76C194.59 44.4 194.797 44.0967 194.93 43.85C195.07 43.6033 195.157 43.4033 195.19 43.25C195.223 43.0967 195.24 42.9667 195.24 42.86C195.24 42.7467 195.22 42.6367 195.18 42.53C195.147 42.4233 195.093 42.33 195.02 42.25C194.947 42.1633 194.857 42.0967 194.75 42.05C194.65 41.9967 194.53 41.97 194.39 41.97C194.123 41.97 193.913 42.0567 193.76 42.23C193.613 42.4033 193.54 42.62 193.54 42.88C193.54 42.9533 193.55 43.06 193.57 43.2H191.43C191.43 42.76 191.5 42.36 191.64 42C191.787 41.64 191.99 41.33 192.25 41.07C192.51 40.81 192.817 40.61 193.17 40.47C193.53 40.33 193.923 40.26 194.35 40.26C194.77 40.26 195.157 40.3267 195.51 40.46C195.87 40.5933 196.18 40.78 196.44 41.02C196.7 41.26 196.903 41.5467 197.05 41.88C197.197 42.2067 197.27 42.5633 197.27 42.95C197.27 43.3633 197.18 43.7467 197 44.1C196.827 44.4467 196.547 44.8033 196.16 45.17L194.91 46.34H197.35V48ZM199.937 44.22C199.937 44.5533 199.967 44.8567 200.027 45.13C200.087 45.4033 200.17 45.64 200.277 45.84C200.39 46.04 200.524 46.1967 200.677 46.31C200.83 46.4167 201.004 46.47 201.197 46.47C201.384 46.47 201.554 46.4167 201.707 46.31C201.867 46.1967 202 46.04 202.107 45.84C202.214 45.64 202.297 45.4033 202.357 45.13C202.417 44.8567 202.447 44.5533 202.447 44.22C202.447 43.8933 202.417 43.5933 202.357 43.32C202.297 43.04 202.214 42.8033 202.107 42.61C202 42.41 201.867 42.2567 201.707 42.15C201.554 42.0367 201.384 41.98 201.197 41.98C201.004 41.98 200.83 42.0367 200.677 42.15C200.524 42.2567 200.39 42.41 200.277 42.61C200.17 42.8033 200.087 43.04 200.027 43.32C199.967 43.5933 199.937 43.8933 199.937 44.22ZM197.997 44.22C197.997 43.62 198.074 43.0767 198.227 42.59C198.387 42.0967 198.607 41.6767 198.887 41.33C199.174 40.9833 199.51 40.7167 199.897 40.53C200.29 40.3367 200.724 40.24 201.197 40.24C201.664 40.24 202.094 40.3367 202.487 40.53C202.88 40.7167 203.217 40.9833 203.497 41.33C203.777 41.6767 203.994 42.0967 204.147 42.59C204.307 43.0767 204.387 43.62 204.387 44.22C204.387 44.82 204.307 45.3667 204.147 45.86C203.994 46.3467 203.777 46.7667 203.497 47.12C203.217 47.4667 202.88 47.7367 202.487 47.93C202.094 48.1167 201.664 48.21 201.197 48.21C200.724 48.21 200.29 48.1167 199.897 47.93C199.51 47.7367 199.174 47.4667 198.887 47.12C198.607 46.7667 198.387 46.3467 198.227 45.86C198.074 45.3667 197.997 44.82 197.997 44.22ZM211.434 46.23C211.434 46.47 211.514 46.6733 211.674 46.84C211.84 47.0067 212.044 47.09 212.284 47.09C212.517 47.09 212.717 47.0067 212.884 46.84C213.05 46.6733 213.134 46.4733 213.134 46.24C213.134 46.12 213.11 46.01 213.064 45.91C213.017 45.8033 212.954 45.7133 212.874 45.64C212.794 45.56 212.7 45.5 212.594 45.46C212.494 45.4133 212.39 45.39 212.284 45.39C212.064 45.39 211.867 45.47 211.694 45.63C211.52 45.79 211.434 45.99 211.434 46.23ZM210.214 46.21C210.214 45.93 210.264 45.68 210.364 45.46C210.47 45.2333 210.614 45.0433 210.794 44.89C210.98 44.73 211.204 44.61 211.464 44.53C211.724 44.4433 212.01 44.4 212.324 44.4C212.624 44.4 212.897 44.4467 213.144 44.54C213.39 44.6267 213.6 44.7533 213.774 44.92C213.954 45.08 214.094 45.2733 214.194 45.5C214.294 45.72 214.344 45.96 214.344 46.22C214.344 46.5 214.294 46.7567 214.194 46.99C214.094 47.2167 213.95 47.4133 213.764 47.58C213.584 47.74 213.364 47.8667 213.104 47.96C212.85 48.0467 212.567 48.09 212.254 48.09C211.947 48.09 211.667 48.0467 211.414 47.96C211.167 47.8733 210.954 47.75 210.774 47.59C210.594 47.4233 210.454 47.2233 210.354 46.99C210.26 46.7567 210.214 46.4967 210.214 46.21ZM211.354 40.46H212.324L207.954 48H206.974L211.354 40.46ZM206.184 42.21C206.184 42.4367 206.264 42.6367 206.424 42.81C206.584 42.9833 206.787 43.07 207.034 43.07C207.147 43.07 207.254 43.0467 207.354 43C207.46 42.9533 207.55 42.8933 207.624 42.82C207.704 42.74 207.767 42.65 207.814 42.55C207.86 42.4433 207.884 42.3333 207.884 42.22C207.884 42.1 207.86 41.99 207.814 41.89C207.767 41.7833 207.704 41.6933 207.624 41.62C207.544 41.54 207.45 41.48 207.344 41.44C207.244 41.3933 207.14 41.37 207.034 41.37C206.807 41.37 206.607 41.4533 206.434 41.62C206.267 41.78 206.184 41.9767 206.184 42.21ZM204.974 42.19C204.974 41.91 205.024 41.6567 205.124 41.43C205.23 41.2033 205.377 41.0133 205.564 40.86C205.75 40.7067 205.97 40.59 206.224 40.51C206.484 40.4233 206.77 40.38 207.084 40.38C207.37 40.38 207.637 40.4267 207.884 40.52C208.13 40.6067 208.344 40.73 208.524 40.89C208.704 41.05 208.844 41.2433 208.944 41.47C209.044 41.69 209.094 41.9333 209.094 42.2C209.094 42.4867 209.04 42.7467 208.934 42.98C208.834 43.2067 208.69 43.4033 208.504 43.57C208.324 43.73 208.104 43.8533 207.844 43.94C207.59 44.0267 207.31 44.07 207.004 44.07C206.384 44.07 205.89 43.9033 205.524 43.57C205.157 43.23 204.974 42.77 204.974 42.19ZM163.52 55.58C163.734 55.58 163.934 55.6233 164.12 55.71C164.307 55.7967 164.47 55.9133 164.61 56.06C164.75 56.2067 164.86 56.3733 164.94 56.56C165.02 56.7467 165.06 56.9433 165.06 57.15C165.06 57.37 165.02 57.5767 164.94 57.77C164.86 57.9567 164.75 58.1233 164.61 58.27C164.47 58.41 164.304 58.5233 164.11 58.61C163.924 58.69 163.72 58.73 163.5 58.73C163.287 58.73 163.087 58.69 162.9 58.61C162.714 58.5233 162.55 58.41 162.41 58.27C162.27 58.13 162.157 57.9667 162.07 57.78C161.99 57.5867 161.95 57.38 161.95 57.16C161.95 56.94 161.99 56.7367 162.07 56.55C162.15 56.3567 162.26 56.19 162.4 56.05C162.54 55.9033 162.707 55.79 162.9 55.71C163.094 55.6233 163.3 55.58 163.52 55.58ZM173.65 55.12H172.55V53.46H175.61V61H173.65V55.12ZM179.246 55.12H178.146V53.46H181.206V61H179.246V55.12ZM187.493 52.7H188.923L184.803 62.73H183.383L187.493 52.7ZM195.338 61H189.268L191.138 59.06C191.632 58.5467 192.018 58.1133 192.298 57.76C192.578 57.4 192.785 57.0967 192.918 56.85C193.058 56.6033 193.145 56.4033 193.178 56.25C193.212 56.0967 193.228 55.9667 193.228 55.86C193.228 55.7467 193.208 55.6367 193.168 55.53C193.135 55.4233 193.082 55.33 193.008 55.25C192.935 55.1633 192.845 55.0967 192.738 55.05C192.638 54.9967 192.518 54.97 192.378 54.97C192.112 54.97 191.902 55.0567 191.748 55.23C191.602 55.4033 191.528 55.62 191.528 55.88C191.528 55.9533 191.538 56.06 191.558 56.2H189.418C189.418 55.76 189.488 55.36 189.628 55C189.775 54.64 189.978 54.33 190.238 54.07C190.498 53.81 190.805 53.61 191.158 53.47C191.518 53.33 191.912 53.26 192.338 53.26C192.758 53.26 193.145 53.3267 193.498 53.46C193.858 53.5933 194.168 53.78 194.428 54.02C194.688 54.26 194.892 54.5467 195.038 54.88C195.185 55.2067 195.258 55.5633 195.258 55.95C195.258 56.3633 195.168 56.7467 194.988 57.1C194.815 57.4467 194.535 57.8033 194.148 58.17L192.898 59.34H195.338V61ZM197.869 55.12H196.769V53.46H199.829V61H197.869V55.12ZM207.986 52.92C207.956 53.12 207.926 53.37 207.916 53.63C207.896 54.14 207.886 55.56 207.886 56.4C207.886 57.5 208.046 59.31 208.046 60.1C208.046 60.96 207.396 61.62 206.086 61.62C204.486 61.62 203.646 61.01 203.646 59.95C203.646 58.94 204.576 58.23 206.106 58.23C208.306 58.23 209.946 59.31 210.776 60.01L210.056 61.13C209.106 60.23 207.656 59.26 205.946 59.26C205.246 59.26 204.856 59.53 204.856 59.88C204.856 60.26 205.206 60.49 205.896 60.49C206.426 60.49 206.786 60.34 206.786 59.76C206.786 59.16 206.676 57.37 206.676 56.4C206.676 55.44 206.686 54.17 206.686 53.6C206.686 53.42 206.666 53.11 206.626 52.92H207.986ZM203.836 53.85C204.546 53.97 205.696 54.07 206.306 54.07C207.666 54.07 208.976 54 210.436 53.77L210.426 54.91C209.406 55.05 207.816 55.17 206.316 55.17C205.676 55.17 204.516 55.08 203.856 55L203.836 53.85ZM203.776 56.01C204.436 56.13 205.656 56.2 206.186 56.2C208.036 56.2 209.326 56.08 210.556 55.92L210.546 57.1C209.166 57.26 208.076 57.32 206.176 57.32C205.586 57.32 204.456 57.27 203.796 57.19L203.776 56.01ZM212.706 54.15C213.096 54.14 213.496 54.12 213.686 54.1C214.516 54.02 216.166 53.88 217.996 53.72C219.036 53.64 220.126 53.57 220.836 53.54L220.846 54.83C220.306 54.83 219.446 54.84 218.906 54.96C217.706 55.28 216.796 56.58 216.796 57.77C216.796 59.41 218.336 60.01 220.026 60.09L219.556 61.46C217.466 61.33 215.486 60.2 215.486 58.03C215.486 56.6 216.296 55.46 216.966 54.95C216.036 55.05 213.986 55.27 212.836 55.52L212.706 54.15ZM219.416 55.81C219.656 56.16 220.016 56.77 220.206 57.17L219.456 57.5C219.196 56.96 218.986 56.56 218.676 56.12L219.416 55.81ZM220.526 55.35C220.786 55.7 221.166 56.29 221.376 56.68L220.626 57.04C220.356 56.5 220.126 56.12 219.806 55.68L220.526 55.35Z" fill="#34495E"/>
<path fill-rule="evenodd" clip-rule="evenodd" d="M221.769 10.1538H160.231C159.415 10.1538 158.632 10.478 158.055 11.0551C157.478 11.6321 157.154 12.4147 157.154 13.2308V74.7692C157.154 75.5853 157.478 76.3679 158.055 76.9449C158.632 77.522 159.415 77.8462 160.231 77.8462H221.769C222.585 77.8462 223.368 77.522 223.945 76.9449C224.522 76.3679 224.846 75.5853 224.846 74.7692V13.2308C224.846 12.4147 224.522 11.6321 223.945 11.0551C223.368 10.478 222.585 10.1538 221.769 10.1538ZM160.231 4C157.783 4 155.435 4.97253 153.704 6.70363C151.973 8.43474 151 10.7826 151 13.2308V74.7692C151 77.2174 151.973 79.5653 153.704 81.2964C155.435 83.0275 157.783 84 160.231 84H221.769C224.217 84 226.565 83.0275 228.296 81.2964C230.027 79.5653 231 77.2174 231 74.7692V13.2308C231 10.7826 230.027 8.43474 228.296 6.70363C226.565 4.97253 224.217 4 221.769 4H160.231Z" fill="#34495E"/>
<path d="M100 70.7778L125 44.3889L100 18V34.6667H75V54.1111H100V70.7778Z" stroke="#34495E" stroke-width="8.33333" stroke-linecap="round" stroke-linejoin="round"/>
<path d="M42.3542 0.958336H10.6875C8.06297 0.958336 5.54592 2.00093 3.69009 3.85676C1.83427 5.71259 0.791672 8.22963 0.791672 10.8542V78.1458C0.791672 80.7704 1.83427 83.2874 3.69009 85.1432C5.54592 86.9991 8.06297 88.0417 10.6875 88.0417H42.3542C44.9787 88.0417 47.4958 86.9991 49.3516 85.1432C51.2074 83.2874 52.25 80.7704 52.25 78.1458V10.8542C52.25 8.22963 51.2074 5.71259 49.3516 3.85676C47.4958 2.00093 44.9787 0.958336 42.3542 0.958336ZM26.5208 84.0833C23.2354 84.0833 20.5833 81.4312 20.5833 78.1458C20.5833 74.8604 23.2354 72.2083 26.5208 72.2083C29.8063 72.2083 32.4583 74.8604 32.4583 78.1458C32.4583 81.4312 29.8063 84.0833 26.5208 84.0833ZM44.3333 68.25H8.70834V12.8333H44.3333V68.25Z" fill="#34495E"/>
<path d="M25.25 53.1071C25.25 52.5743 25.0525 52.0634 24.7008 51.6866C24.3492 51.3099 23.8723 51.0982 23.375 51.0982C22.8777 51.0982 22.4008 51.3099 22.0492 51.6866C21.6975 52.0634 21.5 52.5743 21.5 53.1071H15.25C14.9185 53.1071 14.6005 52.966 14.3661 52.7149C14.1317 52.4637 14 52.1231 14 51.7679V30.3393C14 29.9841 14.1317 29.6434 14.3661 29.3923C14.6005 29.1411 14.9185 29 15.25 29H21.5C21.5 29.5328 21.6975 30.0438 22.0492 30.4205C22.4008 30.7973 22.8777 31.0089 23.375 31.0089C23.8723 31.0089 24.3492 30.7973 24.7008 30.4205C25.0525 30.0438 25.25 29.5328 25.25 29H37.75C38.0815 29 38.3995 29.1411 38.6339 29.3923C38.8683 29.6434 39 29.9841 39 30.3393V37.7054C38.1712 37.7054 37.3763 38.0581 36.7903 38.686C36.2042 39.3139 35.875 40.1656 35.875 41.0536C35.875 41.9416 36.2042 42.7932 36.7903 43.4211C37.3763 44.049 38.1712 44.4018 39 44.4018V51.7679C39 52.1231 38.8683 52.4637 38.6339 52.7149C38.3995 52.966 38.0815 53.1071 37.75 53.1071H25.25ZM23.375 39.0446C23.8723 39.0446 24.3492 38.833 24.7008 38.4562C25.0525 38.0795 25.25 37.5685 25.25 37.0357C25.25 36.5029 25.0525 35.9919 24.7008 35.6152C24.3492 35.2384 23.8723 35.0268 23.375 35.0268C22.8777 35.0268 22.4008 35.2384 22.0492 35.6152C21.6975 35.9919 21.5 36.5029 21.5 37.0357C21.5 37.5685 21.6975 38.0795 22.0492 38.4562C22.4008 38.833 22.8777 39.0446 23.375 39.0446ZM23.375 47.0804C23.8723 47.0804 24.3492 46.8687 24.7008 46.492C25.0525 46.1152 25.25 45.6042 25.25 45.0714C25.25 44.5386 25.0525 44.0276 24.7008 43.6509C24.3492 43.2742 23.8723 43.0625 23.375 43.0625C22.8777 43.0625 22.4008 43.2742 22.0492 43.6509C21.6975 44.0276 21.5 44.5386 21.5 45.0714C21.5 45.6042 21.6975 46.1152 22.0492 46.492C22.4008 46.8687 22.8777 47.0804 23.375 47.0804Z" fill="#34495E"/>
</svg>
