<svg width="150" height="87" viewBox="0 0 150 87" fill="none" xmlns="http://www.w3.org/2000/svg">
<path d="M8 87C5.9375 87 4.1725 86.2663 2.705 84.7988C1.2375 83.3312 0.5025 81.565 0.5 79.5V34.5C0.5 32.4375 1.235 30.6725 2.705 29.205C4.175 27.7375 5.94 27.0025 8 27H68C70.0625 27 71.8288 27.735 73.2988 29.205C74.7688 30.675 75.5025 32.44 75.5 34.5V79.5C75.5 81.5625 74.7663 83.3288 73.2988 84.7988C71.8313 86.2687 70.065 87.0025 68 87H8ZM38 60.75L8 42V79.5H68V42L38 60.75ZM38 53.25L68 34.5H8L38 53.25ZM8 42V34.5V79.5V42Z" fill="#34495E"/>
<path d="M143 0H89.6667C85.99 0 83 2.99 83 6.66667V66.6667L100.777 53.3333H143C146.677 53.3333 149.667 50.3433 149.667 46.6667V6.66667C149.667 2.99 146.677 0 143 0ZM143 46.6667H98.5567L89.6667 53.3333V6.66667H143V46.6667Z" fill="#34495E"/>
<path d="M115.133 41.8334C115.03 41.2232 114.74 40.6554 114.296 40.2121C113.734 39.6494 112.971 39.3334 112.175 39.3334C111.379 39.3334 110.616 39.6494 110.054 40.2121C109.61 40.6554 109.32 41.2232 109.217 41.8334H101.342C101.032 41.8334 100.736 41.7105 100.517 41.4917C100.298 41.2729 100.175 40.9761 100.175 40.6667V14C100.175 13.6906 100.298 13.3939 100.517 13.1751C100.736 12.9563 101.032 12.8334 101.342 12.8334H109.217C109.32 13.4435 109.61 14.0113 110.054 14.4547C110.616 15.0173 111.379 15.3334 112.175 15.3334C112.971 15.3334 113.734 15.0173 114.296 14.4547C114.74 14.0113 115.03 13.4435 115.133 12.8334H131.342C131.651 12.8334 131.948 12.9563 132.167 13.1751C132.385 13.3939 132.508 13.6906 132.508 14V22.6936C131.455 22.8071 130.465 23.277 129.709 24.0335C128.833 24.9087 128.342 26.0957 128.342 27.3334C128.342 28.571 128.833 29.758 129.709 30.6332C130.465 31.3897 131.455 31.8597 132.508 31.9732V40.6667C132.508 40.9761 132.385 41.2729 132.167 41.4917C131.948 41.7105 131.651 41.8334 131.342 41.8334H115.133ZM112.175 25.3334C112.971 25.3334 113.734 25.0173 114.296 24.4547C114.859 23.8921 115.175 23.129 115.175 22.3334C115.175 21.5377 114.859 20.7747 114.296 20.2121C113.734 19.6494 112.971 19.3334 112.175 19.3334C111.379 19.3334 110.616 19.6494 110.054 20.2121C109.491 20.7747 109.175 21.5377 109.175 22.3334C109.175 23.129 109.491 23.8921 110.054 24.4547C110.616 25.0173 111.379 25.3334 112.175 25.3334ZM112.175 35.3334C112.971 35.3334 113.734 35.0173 114.296 34.4547C114.859 33.8921 115.175 33.129 115.175 32.3334C115.175 31.5377 114.859 30.7747 114.296 30.2121C113.734 29.6494 112.971 29.3334 112.175 29.3334C111.379 29.3334 110.616 29.6494 110.054 30.2121C109.491 30.7747 109.175 31.5377 109.175 32.3334C109.175 33.129 109.491 33.8921 110.054 34.4547C110.616 35.0173 111.379 35.3334 112.175 35.3334Z" fill="#34495E" stroke="white"/>
</svg>
