<svg width="261" height="100" viewBox="0 0 261 100" fill="none" xmlns="http://www.w3.org/2000/svg">
<path d="M248.5 18.75H173.5C172.671 18.75 171.876 19.0792 171.29 19.6653C170.704 20.2513 170.375 21.0462 170.375 21.875V75C170.375 76.6576 171.033 78.2473 172.206 79.4194C173.378 80.5915 174.967 81.25 176.625 81.25H245.375C247.033 81.25 248.622 80.5915 249.794 79.4194C250.967 78.2473 251.625 76.6576 251.625 75V21.875C251.625 21.0462 251.296 20.2513 250.71 19.6653C250.124 19.0792 249.329 18.75 248.5 18.75ZM176.625 43.75H192.25V56.25H176.625V43.75ZM198.5 43.75H245.375V56.25H198.5V43.75ZM176.625 62.5H192.25V75H176.625V62.5ZM245.375 75H198.5V62.5H245.375V75Z" fill="#34495E"/>
<path d="M121 75.7778L146 49.3889L121 23V39.6667H96V59.1111H121V75.7778Z" stroke="#34495E" stroke-width="8.33333" stroke-linecap="round" stroke-linejoin="round"/>
<path d="M23.3925 68.25C23.2843 67.4733 22.9262 66.7476 22.3654 66.1867C21.6855 65.5069 20.7635 65.125 19.8021 65.125C18.8407 65.125 17.9187 65.5069 17.2388 66.1867C16.678 66.7476 16.3199 67.4733 16.2117 68.25H6.26043C5.8405 68.25 5.43777 68.0832 5.14084 67.7863C4.84391 67.4893 4.67709 67.0866 4.67709 66.6667V33.3333C4.67709 32.9134 4.84391 32.5107 5.14084 32.2137C5.43777 31.9168 5.8405 31.75 6.26043 31.75H16.2117C16.3199 32.5267 16.678 33.2524 17.2388 33.8133C17.9187 34.4931 18.8407 34.875 19.8021 34.875C20.7635 34.875 21.6855 34.4931 22.3654 33.8133C22.9262 33.2524 23.2843 32.5267 23.3925 31.75H43.7604C44.1804 31.75 44.5831 31.9168 44.88 32.2137C45.1769 32.5107 45.3438 32.9134 45.3438 33.3333V44.3136C44.0131 44.4305 42.7594 45.0116 41.8074 45.9636C40.7368 47.0341 40.1354 48.4861 40.1354 50C40.1354 51.5139 40.7368 52.9659 41.8074 54.0364C42.7594 54.9884 44.0131 55.5695 45.3438 55.6864V66.6667C45.3438 67.0866 45.1769 67.4893 44.88 67.7863C44.5831 68.0832 44.1804 68.25 43.7604 68.25H23.3925ZM19.8021 47.375C20.7635 47.375 21.6855 46.9931 22.3654 46.3133C23.0452 45.6334 23.4271 44.7114 23.4271 43.75C23.4271 42.7886 23.0452 41.8666 22.3654 41.1867C21.6855 40.5069 20.7635 40.125 19.8021 40.125C18.8407 40.125 17.9187 40.5069 17.2388 41.1867C16.559 41.8666 16.1771 42.7886 16.1771 43.75C16.1771 44.7114 16.559 45.6334 17.2388 46.3133C17.9187 46.9931 18.8407 47.375 19.8021 47.375ZM19.8021 59.875C20.7635 59.875 21.6855 59.4931 22.3654 58.8133C23.0452 58.1334 23.4271 57.2114 23.4271 56.25C23.4271 55.2886 23.0452 54.3666 22.3654 53.6867C21.6855 53.0069 20.7635 52.625 19.8021 52.625C18.8407 52.625 17.9187 53.0069 17.2388 53.6867C16.559 54.3666 16.1771 55.2886 16.1771 56.25C16.1771 57.2114 16.559 58.1334 17.2388 58.8133C17.9187 59.4931 18.8407 59.875 19.8021 59.875Z" fill="#34495E" stroke="white"/>
<path d="M54.3925 83.25C54.2843 82.4733 53.9262 81.7476 53.3654 81.1867C52.6855 80.5069 51.7635 80.125 50.8021 80.125C49.8407 80.125 48.9187 80.5069 48.2388 81.1867C47.678 81.7476 47.3199 82.4733 47.2117 83.25H37.2604C36.8405 83.25 36.4378 83.0832 36.1408 82.7863C35.8439 82.4893 35.6771 82.0866 35.6771 81.6667V48.3333C35.6771 47.9134 35.8439 47.5107 36.1408 47.2137C36.4378 46.9168 36.8405 46.75 37.2604 46.75H47.2117C47.3199 47.5267 47.678 48.2524 48.2388 48.8133C48.9187 49.4931 49.8407 49.875 50.8021 49.875C51.7635 49.875 52.6855 49.4931 53.3654 48.8133C53.9262 48.2524 54.2843 47.5267 54.3925 46.75H74.7604C75.1804 46.75 75.5831 46.9168 75.88 47.2137C76.1769 47.5107 76.3438 47.9134 76.3438 48.3333V59.3136C75.0131 59.4305 73.7594 60.0116 72.8074 60.9636C71.7368 62.0341 71.1354 63.4861 71.1354 65C71.1354 66.5139 71.7368 67.9659 72.8074 69.0364C73.7594 69.9884 75.0131 70.5695 76.3438 70.6864V81.6667C76.3438 82.0866 76.1769 82.4893 75.88 82.7863C75.5831 83.0832 75.1804 83.25 74.7604 83.25H54.3925ZM50.8021 62.375C51.7635 62.375 52.6855 61.9931 53.3654 61.3133C54.0452 60.6334 54.4271 59.7114 54.4271 58.75C54.4271 57.7886 54.0452 56.8666 53.3654 56.1867C52.6855 55.5069 51.7635 55.125 50.8021 55.125C49.8407 55.125 48.9187 55.5069 48.2388 56.1867C47.559 56.8666 47.1771 57.7886 47.1771 58.75C47.1771 59.7114 47.559 60.6334 48.2388 61.3133C48.9187 61.9931 49.8407 62.375 50.8021 62.375ZM50.8021 74.875C51.7635 74.875 52.6855 74.4931 53.3654 73.8133C54.0452 73.1334 54.4271 72.2114 54.4271 71.25C54.4271 70.2886 54.0452 69.3666 53.3654 68.6867C52.6855 68.0069 51.7635 67.625 50.8021 67.625C49.8407 67.625 48.9187 68.0069 48.2388 68.6867C47.559 69.3666 47.1771 70.2886 47.1771 71.25C47.1771 72.2114 47.559 73.1334 48.2388 73.8133C48.9187 74.4931 49.8407 74.875 50.8021 74.875Z" fill="#34495E" stroke="white"/>
<path d="M44.3925 49.25C44.2843 48.4733 43.9262 47.7476 43.3654 47.1867C42.6855 46.5069 41.7635 46.125 40.8021 46.125C39.8407 46.125 38.9187 46.5069 38.2388 47.1867C37.678 47.7476 37.3199 48.4733 37.2117 49.25H27.2604C26.8405 49.25 26.4378 49.0832 26.1408 48.7863C25.8439 48.4893 25.6771 48.0866 25.6771 47.6667V14.3333C25.6771 13.9134 25.8439 13.5107 26.1408 13.2137C26.4378 12.9168 26.8405 12.75 27.2604 12.75H37.2117C37.3199 13.5267 37.678 14.2524 38.2388 14.8133C38.9187 15.4931 39.8407 15.875 40.8021 15.875C41.7635 15.875 42.6855 15.4931 43.3654 14.8133C43.9262 14.2524 44.2843 13.5267 44.3925 12.75H64.7604C65.1804 12.75 65.5831 12.9168 65.88 13.2137C66.1769 13.5107 66.3438 13.9134 66.3438 14.3333V25.3136C65.0131 25.4305 63.7594 26.0116 62.8074 26.9636C61.7368 28.0341 61.1354 29.4861 61.1354 31C61.1354 32.5139 61.7368 33.9659 62.8074 35.0364C63.7594 35.9884 65.0131 36.5695 66.3438 36.6864V47.6667C66.3438 48.0866 66.1769 48.4893 65.88 48.7863C65.5831 49.0832 65.1804 49.25 64.7604 49.25H44.3925ZM40.8021 28.375C41.7635 28.375 42.6855 27.9931 43.3654 27.3133C44.0452 26.6334 44.4271 25.7114 44.4271 24.75C44.4271 23.7886 44.0452 22.8666 43.3654 22.1867C42.6855 21.5069 41.7635 21.125 40.8021 21.125C39.8407 21.125 38.9187 21.5069 38.2388 22.1867C37.559 22.8666 37.1771 23.7886 37.1771 24.75C37.1771 25.7114 37.559 26.6334 38.2388 27.3133C38.9187 27.9931 39.8407 28.375 40.8021 28.375ZM40.8021 40.875C41.7635 40.875 42.6855 40.4931 43.3654 39.8133C44.0452 39.1334 44.4271 38.2114 44.4271 37.25C44.4271 36.2886 44.0452 35.3666 43.3654 34.6867C42.6855 34.0069 41.7635 33.625 40.8021 33.625C39.8407 33.625 38.9187 34.0069 38.2388 34.6867C37.559 35.3666 37.1771 36.2886 37.1771 37.25C37.1771 38.2114 37.559 39.1334 38.2388 39.8133C38.9187 40.4931 39.8407 40.875 40.8021 40.875Z" fill="#34495E" stroke="white"/>
</svg>
