<svg width="25" height="25" viewBox="0 0 25 25" fill="none" xmlns="http://www.w3.org/2000/svg">
<path d="M12.5 9.375C11.6712 9.375 10.8763 9.70424 10.2902 10.2903C9.7042 10.8763 9.37496 11.6712 9.37496 12.5C9.37496 13.3288 9.7042 14.1237 10.2902 14.7097C10.8763 15.2958 11.6712 15.625 12.5 15.625C13.3288 15.625 14.1236 15.2958 14.7097 14.7097C15.2957 14.1237 15.625 13.3288 15.625 12.5C15.625 11.6712 15.2957 10.8763 14.7097 10.2903C14.1236 9.70424 13.3288 9.375 12.5 9.375ZM12.5 17.7083C11.1186 17.7083 9.79386 17.1596 8.81711 16.1828C7.84036 15.2061 7.29163 13.8813 7.29163 12.5C7.29163 11.1187 7.84036 9.7939 8.81711 8.81715C9.79386 7.8404 11.1186 7.29167 12.5 7.29167C13.8813 7.29167 15.2061 7.8404 16.1828 8.81715C17.1596 9.7939 17.7083 11.1187 17.7083 12.5C17.7083 13.8813 17.1596 15.2061 16.1828 16.1828C15.2061 17.1596 13.8813 17.7083 12.5 17.7083ZM12.5 4.6875C7.29163 4.6875 2.84371 7.92708 1.04163 12.5C2.84371 17.0729 7.29163 20.3125 12.5 20.3125C17.7083 20.3125 22.1562 17.0729 23.9583 12.5C22.1562 7.92708 17.7083 4.6875 12.5 4.6875Z" fill="#34495E"/>
</svg>
