<svg width="25" height="25" viewBox="0 0 25 25" fill="none" xmlns="http://www.w3.org/2000/svg">
<path d="M15.625 20.7083C15.6667 21.0208 15.5625 21.3542 15.3229 21.5729C15.2266 21.6695 15.1121 21.7461 14.9861 21.7984C14.8601 21.8506 14.725 21.8775 14.5886 21.8775C14.4521 21.8775 14.317 21.8506 14.191 21.7984C14.065 21.7461 13.9505 21.6695 13.8542 21.5729L9.6771 17.3958C9.56355 17.2847 9.47721 17.1489 9.42481 16.9989C9.37241 16.8489 9.35537 16.6889 9.37501 16.5312V11.1979L4.38543 4.8125C4.21627 4.59534 4.13995 4.32006 4.17313 4.0468C4.20631 3.77354 4.3463 3.52453 4.56251 3.35417C4.76043 3.20833 4.97918 3.125 5.20835 3.125H19.7917C20.0208 3.125 20.2396 3.20833 20.4375 3.35417C20.6537 3.52453 20.7937 3.77354 20.8269 4.0468C20.8601 4.32006 20.7838 4.59534 20.6146 4.8125L15.625 11.1979V20.7083ZM7.33335 5.20833L11.4583 10.4792V16.2292L13.5417 18.3125V10.4688L17.6667 5.20833H7.33335Z" fill="#ffffff"/>
</svg>
