<svg width="19" height="20" viewBox="0 0 19 20" fill="none" xmlns="http://www.w3.org/2000/svg">
<g clip-path="url(#clip0_214_51)">
<path fill-rule="evenodd" clip-rule="evenodd" d="M10.5544 13.3833C10.3374 13.6174 10.0433 13.7489 9.73657 13.7489C9.42987 13.7489 9.13571 13.6174 8.91871 13.3833L4.55317 8.66999C4.33616 8.43549 4.21428 8.11749 4.21436 7.78594C4.21443 7.4544 4.33644 7.13646 4.55356 6.90207C4.77067 6.66769 5.0651 6.53605 5.37208 6.53613C5.67906 6.53621 5.97343 6.66799 6.19044 6.90249L9.73657 10.7325L13.2827 6.90249C13.5009 6.67468 13.7932 6.54853 14.0966 6.55123C14.4001 6.55392 14.6904 6.68523 14.9051 6.91688C15.1198 7.14854 15.2417 7.46199 15.2444 7.78974C15.2472 8.11748 15.1307 8.4333 14.92 8.66916L10.5552 13.3842L10.5544 13.3833Z" fill="#34495E"/>
</g>
<defs>
<clipPath id="clip0_214_51">
<rect width="18.5177" height="20" fill="white" transform="translate(0.477539)"/>
</clipPath>
</defs>
</svg>
