<svg width="19" height="19" viewBox="0 0 19 19" fill="none" xmlns="http://www.w3.org/2000/svg">
<path fill-rule="evenodd" clip-rule="evenodd" d="M9.5 18.125C10.6327 18.125 11.7542 17.9019 12.8006 17.4685C13.8471 17.035 14.7979 16.3997 15.5988 15.5988C16.3997 14.7979 17.035 13.8471 17.4685 12.8006C17.9019 11.7542 18.125 10.6327 18.125 9.5C18.125 8.36735 17.9019 7.24579 17.4685 6.19936C17.035 5.15292 16.3997 4.20211 15.5988 3.4012C14.7979 2.6003 13.8471 1.96499 12.8006 1.53154C11.7542 1.09809 10.6327 0.875 9.5 0.875C7.21251 0.875 5.0187 1.7837 3.4012 3.4012C1.7837 5.0187 0.875 7.21251 0.875 9.5C0.875 11.7875 1.7837 13.9813 3.4012 15.5988C5.0187 17.2163 7.21251 18.125 9.5 18.125ZM9.27767 12.9883L14.0693 7.23833L12.5973 6.01167L8.4765 10.9557L6.34421 8.82246L4.98913 10.1775L7.86412 13.0525L8.60588 13.7943L9.27767 12.9883Z" fill="#699BF7"/>
</svg>
